<?xml version="1.0" encoding="UTF-8"?>
<svg xmlns="http://www.w3.org/2000/svg" xmlns:xlink="http://www.w3.org/1999/xlink" version="1.2" >
<font id="Simple Light">
<font-face  font-family="Simple" units-per-em="1000" ascent="750" descent="-250" font-style="normal" font-weight="300" font-stretch="normal" cap-height="750" x-height="500" underline-position="-123" underline-thickness="20" />
<missing-glyph  horiz-adv-x="550" d="M328 253 C328 283 304 306 275 306 C246 306 222 283 222 253 C222 224 246 200 275 200 C304 200 328 224 328 253 L328 253 Z " />
<glyph glyph-name="NULL" horiz-adv-x="550" d="" />
<glyph glyph-name="CR" unicode="&#xd;" horiz-adv-x="550" d="" />
<glyph glyph-name="space" unicode="&#x20;" horiz-adv-x="550" d="" />
<glyph glyph-name="exclam" unicode="&#x21;" horiz-adv-x="550" d="M293 242 L293 737 C293 740 290 742 287 742 L263 742 C260 742 257 740 257 737 L257 242 C257 238 260 236 263 236 L287 236 C290 236 293 238 293 242 L293 242 Z M328 6 L328 100 C328 103 325 106 322 106 L228 106 C225 106 222 103 222 100 L222 6 C222 3 225 0 228 0 L322 0 C325 0 328 3 328 6 L328 6 Z " />
<glyph glyph-name="quotedbl" unicode="&#x22;" horiz-adv-x="550" d="M434 607 L434 737 C434 740 431 742 428 742 L334 742 C331 742 328 740 328 737 L328 642 C328 639 331 636 334 636 L399 636 L399 607 C399 571 370 542 334 542 C331 542 328 539 328 536 L328 513 C328 510 331 507 334 507 C389 507 434 552 434 607 L434 607 Z M222 607 L222 737 C222 740 219 742 216 742 L122 742 C119 742 116 740 116 737 L116 642 C116 639 119 636 122 636 L187 636 L187 607 C187 571 158 542 122 542 C119 542 116 539 116 536 L116 513 C116 510 119 507 122 507 C177 507 222 552 222 607 L222 607 Z " />
<glyph glyph-name="numbersign" unicode="&#x23;" horiz-adv-x="550" d="M517 477 L517 501 C517 504 514 507 511 507 L415 507 L456 736 C456 739 454 742 450 742 L426 742 C423 742 420 740 420 738 L379 507 L216 507 L257 736 C257 739 255 742 251 742 L227 742 C225 742 222 740 221 738 L181 507 L81 507 C78 507 75 504 75 501 L75 477 C75 474 78 471 81 471 L174 471 L139 271 L39 271 C36 271 33 268 33 265 L33 242 C33 238 36 236 39 236 L133 236 L92 7 C92 3 94 0 98 0 L122 0 C124 0 127 2 128 5 L169 236 L331 236 L291 7 C290 3 293 0 297 0 L321 0 C323 0 326 2 327 5 L367 236 L469 236 C472 236 475 238 475 242 L475 265 C475 268 472 271 469 271 L374 271 L409 471 L511 471 C514 471 517 474 517 477 L517 477 Z M373 471 L338 271 L175 271 L210 471 L373 471 Z " />
<glyph glyph-name="dollar" unicode="&#x24;" horiz-adv-x="550" d="M458 147 L458 183 C458 282 397 331 320 373 C245 415 139 456 139 560 L139 595 C139 664 195 719 263 719 L287 719 C355 719 411 664 411 595 L411 583 C411 580 413 577 416 577 L440 577 C443 577 446 580 446 583 L446 595 C446 675 387 740 293 755 L293 831 C293 834 290 837 287 837 L263 837 C260 837 257 834 257 831 L257 755 C163 740 104 675 104 595 L104 560 C104 345 422 381 422 183 L422 147 C422 79 367 24 299 24 L251 24 C183 24 128 79 128 147 L128 159 C128 162 125 165 122 165 L98 165 C95 165 92 162 92 159 L92 147 C92 64 156 -4 257 -12 L257 -88 C257 -92 260 -94 263 -94 L287 -94 C290 -94 293 -92 293 -88 L293 -12 C394 -4 458 64 458 147 L458 147 Z " />
<glyph glyph-name="percent" unicode="&#x25;" horiz-adv-x="550" d="M246 536 L246 678 C246 720 211 754 169 754 L145 754 C103 754 69 720 69 678 L69 536 C69 494 103 460 145 460 L169 460 C211 460 246 494 246 536 L246 536 Z M210 536 C210 513 192 495 169 495 L145 495 C123 495 104 513 104 536 L104 678 C104 700 123 719 145 719 L169 719 C192 719 210 700 210 678 L210 536 Z M428 500 C430 503 430 506 428 509 L411 525 C409 528 405 528 403 525 L121 243 C118 241 118 237 121 235 L137 218 C140 216 143 216 146 218 L428 500 Z M481 65 L481 206 C481 249 447 283 405 283 L381 283 C339 283 304 249 304 206 L304 65 C304 23 339 -12 381 -12 L405 -12 C447 -12 481 23 481 65 L481 65 Z M446 65 C446 42 427 24 405 24 L381 24 C358 24 340 42 340 65 L340 206 C340 229 358 247 381 247 L405 247 C427 247 446 229 446 206 L446 65 Z " />
<glyph glyph-name="ampersand" unicode="&#x26;" horiz-adv-x="550" d="M476 12 L439 72 C453 102 458 124 458 147 L458 312 C458 315 455 318 452 318 L428 318 C425 318 422 315 422 312 L422 147 C422 133 420 120 416 108 L156 521 C145 539 139 561 139 583 L139 595 C139 664 195 719 263 719 L287 719 C355 719 411 664 411 595 L411 501 C411 498 413 495 416 495 L440 495 C443 495 446 498 446 501 L446 595 C446 683 375 754 287 754 L263 754 C175 754 104 683 104 595 L104 583 C104 521 147 468 178 418 C117 382 92 343 92 277 L92 147 C92 59 164 -12 251 -12 L299 -12 C337 -12 372 2 417 39 L446 -6 C448 -9 452 -10 454 -8 L474 4 C477 6 478 10 476 12 L476 12 Z M397 71 C363 37 332 24 299 24 L251 24 C183 24 128 79 128 147 L128 277 C128 326 146 361 197 390 L397 71 Z " />
<glyph glyph-name="quotesingle" unicode="&#x27;" horiz-adv-x="550" d="M328 607 L328 737 C328 740 325 742 322 742 L228 742 C225 742 222 740 222 737 L222 642 C222 639 225 636 228 636 L293 636 L293 607 C293 571 264 542 228 542 C225 542 222 539 222 536 L222 513 C222 510 225 507 228 507 C283 507 328 552 328 607 L328 607 Z " />
<glyph glyph-name="parenleft" unicode="&#x28;" horiz-adv-x="550" d="M363 -230 L363 -206 C363 -203 361 -201 357 -201 L346 -201 C277 -201 222 -145 222 -77 L222 583 C222 652 277 707 346 707 L357 707 C361 707 363 710 363 713 L363 737 C363 740 361 742 357 742 L346 742 C258 742 187 671 187 583 L187 -77 C187 -165 258 -236 346 -236 L357 -236 C361 -236 363 -233 363 -230 L363 -230 Z " />
<glyph glyph-name="parenright" unicode="&#x29;" horiz-adv-x="550" d="M363 -77 L363 583 C363 671 292 742 204 742 L193 742 C189 742 187 740 187 737 L187 713 C187 710 189 707 193 707 L204 707 C273 707 328 652 328 583 L328 -77 C328 -145 273 -201 204 -201 L193 -201 C189 -201 187 -203 187 -206 L187 -230 C187 -233 189 -236 193 -236 L204 -236 C292 -236 363 -165 363 -77 L363 -77 Z " />
<glyph glyph-name="asterisk" unicode="&#x2a;" horiz-adv-x="550" d="M458 548 L458 572 C458 575 455 577 452 577 L306 577 L379 704 C380 707 379 711 377 712 L356 724 C353 725 350 724 348 722 L275 595 L202 722 C200 724 197 725 194 724 L173 712 C171 711 170 707 171 704 L244 577 L98 577 C95 577 92 575 92 572 L92 548 C92 545 95 542 98 542 L244 542 L171 416 C170 413 171 409 173 408 L194 396 C197 394 200 395 202 398 L275 524 L348 398 C350 395 353 394 356 396 L377 408 C379 409 380 413 379 416 L306 542 L452 542 C455 542 458 545 458 548 L458 548 Z " />
<glyph glyph-name="plus" unicode="&#x2b;" horiz-adv-x="550" d="M422 253 L422 277 C422 280 420 283 416 283 L293 283 L293 407 C293 410 290 412 287 412 L263 412 C260 412 257 410 257 407 L257 283 L134 283 C130 283 128 280 128 277 L128 253 C128 250 130 247 134 247 L257 247 L257 124 C257 121 260 118 263 118 L287 118 C290 118 293 121 293 124 L293 247 L416 247 C420 247 422 250 422 253 L422 253 Z " />
<glyph glyph-name="comma" unicode="&#x2c;" horiz-adv-x="550" d="M328 -29 L328 100 C328 103 325 106 322 106 L228 106 C225 106 222 103 222 100 L222 6 C222 3 225 0 228 0 L293 0 L293 -29 C293 -65 264 -94 228 -94 C225 -94 222 -97 222 -100 L222 -124 C222 -127 225 -130 228 -130 C283 -130 328 -85 328 -29 L328 -29 Z " />
<glyph glyph-name="hyphen" unicode="&#x2d;" horiz-adv-x="550" d="M422 253 L422 277 C422 280 420 283 416 283 L134 283 C130 283 128 280 128 277 L128 253 C128 250 130 247 134 247 L416 247 C420 247 422 250 422 253 L422 253 Z " />
<glyph glyph-name="period" unicode="&#x2e;" horiz-adv-x="550" d="M328 6 L328 100 C328 103 325 106 322 106 L228 106 C225 106 222 103 222 100 L222 6 C222 3 225 0 228 0 L322 0 C325 0 328 3 328 6 L328 6 Z " />
<glyph glyph-name="slash" unicode="&#x2f;" horiz-adv-x="550" d="M442 734 C443 739 441 742 436 742 L411 742 C409 742 406 740 405 739 L108 8 C107 4 109 0 114 0 L139 0 C141 0 144 2 145 4 L442 734 Z " />
<glyph glyph-name="zero" unicode="0" horiz-adv-x="550" d="M446 147 L446 595 C446 683 375 754 287 754 L263 754 C175 754 104 683 104 595 L104 147 C104 59 175 -12 263 -12 L287 -12 C375 -12 446 59 446 147 L446 147 Z M411 147 C411 79 355 24 287 24 L263 24 C195 24 139 79 139 147 L139 595 C139 664 195 719 263 719 L287 719 C355 719 411 664 411 595 L411 147 Z " />
<glyph glyph-name="one" unicode="1" horiz-adv-x="550" d="M481 6 L481 29 C481 33 478 35 475 35 L316 35 L316 737 C316 740 313 742 310 742 L270 742 C269 742 266 741 265 740 L128 580 C126 578 126 574 129 572 L147 557 C149 555 153 555 155 558 L281 705 L281 35 L98 35 C95 35 92 33 92 29 L92 6 C92 3 95 0 98 0 L475 0 C478 0 481 3 481 6 L481 6 Z " />
<glyph glyph-name="two" unicode="2" horiz-adv-x="550" d="M458 6 L458 29 C458 33 455 35 452 35 L128 35 C131 184 166 259 285 345 C417 441 446 504 446 560 L446 595 C446 683 375 754 287 754 L263 754 C175 754 104 683 104 595 L104 572 C104 568 107 566 110 566 L134 566 C137 566 139 568 139 572 L139 595 C139 664 195 719 263 719 L287 719 C355 719 411 664 411 595 L411 560 C411 521 393 467 265 374 C130 276 92 188 92 41 L92 6 C92 3 95 0 98 0 L452 0 C455 0 458 3 458 6 L458 6 Z " />
<glyph glyph-name="three" unicode="3" horiz-adv-x="550" d="M458 147 L458 301 C458 388 386 460 299 460 L258 460 L445 693 C445 694 446 697 446 697 L446 737 C446 740 443 742 440 742 L134 742 C130 742 128 740 128 737 L128 713 C128 710 130 707 134 707 L415 707 C361 643 243 497 223 473 L222 470 L222 430 C222 427 225 424 228 424 L299 424 C367 424 422 369 422 301 L422 147 C422 79 367 24 299 24 L251 24 C183 24 128 79 128 147 L128 171 C128 174 125 177 122 177 L98 177 C95 177 92 174 92 171 L92 147 C92 59 164 -12 251 -12 L299 -12 C386 -12 458 59 458 147 L458 147 Z " />
<glyph glyph-name="four" unicode="4" horiz-adv-x="550" d="M469 147 L469 171 C469 174 467 177 464 177 L399 177 L399 359 C399 363 396 365 393 365 L369 365 C366 365 363 363 363 359 L363 177 L116 177 L116 202 L382 734 C384 739 382 742 377 742 L350 742 C349 742 346 740 345 739 L81 212 L81 209 L81 147 C81 144 83 141 86 141 L363 141 L363 6 C363 3 366 0 369 0 L393 0 C396 0 399 3 399 6 L399 141 L464 141 C467 141 469 144 469 147 L469 147 Z " />
<glyph glyph-name="five" unicode="5" horiz-adv-x="550" d="M446 147 L446 324 C446 412 375 483 287 483 C259 483 263 483 263 483 C218 483 177 464 149 434 L162 707 L428 707 C431 707 434 710 434 713 L434 737 C434 740 431 742 428 742 L134 742 C131 742 128 740 128 737 L109 360 C109 356 112 354 115 354 L137 354 C140 354 143 356 144 360 C158 412 210 448 263 448 L287 448 C355 448 411 392 411 324 L411 147 C411 79 355 24 287 24 L263 24 C195 24 139 79 139 147 L139 171 C139 174 137 177 134 177 L110 177 C107 177 104 174 104 171 L104 147 C104 59 175 -12 263 -12 L287 -12 C375 -12 446 59 446 147 L446 147 Z " />
<glyph glyph-name="six" unicode="6" horiz-adv-x="550" d="M446 147 L446 324 C446 412 375 483 287 483 L263 483 C213 483 169 460 139 424 L139 595 C139 664 195 719 263 719 L287 719 C355 719 411 664 411 595 C411 592 413 589 416 589 L440 589 C443 589 446 592 446 595 C446 683 375 754 287 754 L263 754 C175 754 104 683 104 595 L104 147 C104 59 175 -12 263 -12 L287 -12 C375 -12 446 59 446 147 L446 147 Z M411 147 C411 79 355 24 287 24 L263 24 C195 24 139 79 139 147 L139 324 C139 392 195 448 263 448 L287 448 C355 448 411 392 411 324 L411 147 Z " />
<glyph glyph-name="seven" unicode="7" horiz-adv-x="550" d="M458 689 L458 737 C458 740 455 742 452 742 L98 742 C95 742 92 740 92 737 L92 713 C92 710 95 707 98 707 L422 707 C421 583 367 522 307 423 C248 326 183 202 156 7 C155 3 158 0 161 0 L185 0 C188 0 191 3 191 5 C218 192 280 310 337 405 C391 493 458 581 458 689 L458 689 Z " />
<glyph glyph-name="eight" unicode="8" horiz-adv-x="550" d="M458 147 L458 230 C458 294 420 349 365 374 C413 402 446 453 446 513 L446 595 C446 683 375 754 287 754 L263 754 C175 754 104 683 104 595 L104 513 C104 453 137 402 185 374 C130 349 92 294 92 230 L92 147 C92 59 164 -12 251 -12 L299 -12 C386 -12 458 59 458 147 L458 147 Z M411 513 C411 444 355 389 287 389 L263 389 C195 389 139 444 139 513 L139 595 C139 664 195 719 263 719 L287 719 C355 719 411 664 411 595 L411 513 Z M422 147 C422 79 367 24 299 24 L251 24 C183 24 128 79 128 147 L128 230 C128 298 183 354 251 354 L299 354 C367 354 422 298 422 230 L422 147 Z " />
<glyph glyph-name="nine" unicode="9" horiz-adv-x="550" d="M446 147 L446 595 C446 683 375 754 287 754 L263 754 C175 754 104 683 104 595 L104 418 C104 331 175 259 263 259 L287 259 C337 259 381 282 411 318 L411 147 C411 79 355 24 287 24 L275 24 C207 24 151 79 151 147 C151 150 148 153 145 153 L122 153 C119 153 116 150 116 147 C116 59 187 -12 275 -12 L287 -12 C375 -12 446 59 446 147 L446 147 Z M411 418 C411 350 355 295 287 295 L263 295 C195 295 139 350 139 418 L139 595 C139 664 195 719 263 719 L287 719 C355 719 411 664 411 595 L411 418 Z " />
<glyph glyph-name="colon" unicode="&#x3a;" horiz-adv-x="550" d="M328 383 L328 477 C328 480 325 483 322 483 L228 483 C225 483 222 480 222 477 L222 383 C222 380 225 377 228 377 L322 377 C325 377 328 380 328 383 L328 383 Z M328 6 L328 100 C328 103 325 106 322 106 L228 106 C225 106 222 103 222 100 L222 6 C222 3 225 0 228 0 L322 0 C325 0 328 3 328 6 L328 6 Z " />
<glyph glyph-name="semicolon" unicode="&#x3b;" horiz-adv-x="550" d="M328 383 L328 477 C328 480 325 483 322 483 L228 483 C225 483 222 480 222 477 L222 383 C222 380 225 377 228 377 L322 377 C325 377 328 380 328 383 L328 383 Z M328 -29 L328 100 C328 103 325 106 322 106 L228 106 C225 106 222 103 222 100 L222 6 C222 3 225 0 228 0 L293 0 L293 -29 C293 -65 264 -94 228 -94 C225 -94 222 -97 222 -100 L222 -124 C222 -127 225 -130 228 -130 C283 -130 328 -85 328 -29 L328 -29 Z " />
<glyph glyph-name="less" unicode="&#x3c;" horiz-adv-x="550" d="M398 57 L172 253 L397 449 C403 454 400 460 394 460 L357 460 C357 460 354 459 354 458 L142 275 C141 275 139 271 139 271 L139 236 C139 235 141 232 142 232 L354 49 C354 48 357 47 357 47 L394 47 C401 47 403 53 398 57 L398 57 Z " />
<glyph glyph-name="equal" unicode="&#x3d;" horiz-adv-x="550" d="M422 324 L422 348 C422 351 420 354 416 354 L134 354 C130 354 128 351 128 348 L128 324 C128 321 130 318 134 318 L416 318 C420 318 422 321 422 324 L422 324 Z M422 183 L422 206 C422 209 420 212 416 212 L134 212 C130 212 128 209 128 206 L128 183 C128 180 130 177 134 177 L416 177 C420 177 422 180 422 183 L422 183 Z " />
<glyph glyph-name="greater" unicode="&#x3e;" horiz-adv-x="550" d="M411 236 L411 271 C411 271 409 275 408 275 L196 458 C196 459 193 460 193 460 L156 460 C150 460 147 454 153 449 L378 253 L152 57 C147 53 149 47 156 47 L193 47 C193 47 196 48 196 49 L408 232 C409 232 411 235 411 236 L411 236 Z " />
<glyph glyph-name="question" unicode="&#x3f;" horiz-adv-x="550" d="M446 572 L446 595 C446 683 375 754 287 754 L263 754 C175 754 104 683 104 595 L104 572 C104 568 107 566 110 566 L134 566 C137 566 139 568 139 572 L139 595 C139 664 195 719 263 719 L287 719 C355 719 411 664 411 595 L411 572 C411 530 401 476 312 409 C237 353 234 303 234 242 C234 238 237 236 240 236 L263 236 C266 236 269 238 269 242 C269 298 271 335 333 381 C431 455 446 519 446 572 L446 572 Z M304 6 L304 100 C304 103 302 106 299 106 L204 106 C201 106 198 103 198 100 L198 6 C198 3 201 0 204 0 L299 0 C302 0 304 3 304 6 L304 6 Z " />
<glyph glyph-name="at" unicode="&#x40;" horiz-adv-x="550" d="M469 77 L469 595 C469 683 398 754 310 754 L251 754 C164 754 92 683 92 595 L92 572 C92 568 95 566 98 566 L122 566 C125 566 128 568 128 572 L128 595 C128 664 183 719 251 719 L310 719 C379 719 434 664 434 595 L434 77 C434 47 410 24 381 24 C352 24 328 47 328 77 L328 501 C328 504 325 507 322 507 L299 507 C295 507 293 504 293 501 C293 501 293 492 293 481 C270 504 239 519 204 519 C136 519 81 463 81 395 L81 112 C81 44 136 -12 204 -12 C244 -12 280 7 302 36 C317 8 347 -12 381 -12 C430 -12 469 28 469 77 L469 77 Z M293 112 C293 63 253 24 204 24 C155 24 116 63 116 112 L116 395 C116 444 155 483 204 483 C253 483 293 444 293 395 L293 112 Z " />
<glyph glyph-name="A" unicode="A" horiz-adv-x="550" d="M446 278 L446 280 L325 738 C325 740 322 742 319 742 L231 742 C228 742 225 740 225 738 L104 280 L104 278 L104 6 C104 3 107 0 110 0 L134 0 C137 0 139 3 139 6 L139 259 L411 259 L411 6 C411 3 413 0 416 0 L440 0 C443 0 446 3 446 6 L446 278 Z M405 295 L145 295 L253 707 L297 707 L405 295 Z " />
<glyph glyph-name="B" unicode="B" horiz-adv-x="550" d="M467 159 L467 230 C467 294 429 349 375 374 C423 402 455 453 455 513 L455 583 C455 671 384 742 296 742 L273 742 L119 742 C116 742 114 740 114 737 L114 6 C114 3 116 0 119 0 L237 0 L308 0 C396 0 467 71 467 159 L467 159 Z M420 513 C420 444 365 389 296 389 L149 389 L149 707 L273 707 L296 707 C365 707 420 652 420 583 L420 513 Z M432 159 C432 91 376 35 308 35 L237 35 L149 35 L149 354 L308 354 C376 354 432 298 432 230 L432 159 Z " />
<glyph glyph-name="C" unicode="C" horiz-adv-x="550" d="M458 147 L458 171 C458 174 455 177 452 177 L428 177 C425 177 422 174 422 171 L422 147 C422 79 367 24 299 24 L263 24 C195 24 139 79 139 147 L139 595 C139 664 195 719 263 719 L299 719 C367 719 422 664 422 595 L422 583 C422 580 425 577 428 577 L452 577 C455 577 458 580 458 583 L458 595 C458 683 386 754 299 754 L263 754 C175 754 104 683 104 595 L104 147 C104 59 175 -12 263 -12 L299 -12 C386 -12 458 59 458 147 L458 147 Z " />
<glyph glyph-name="D" unicode="D" horiz-adv-x="550" d="M455 159 L455 583 C455 671 384 742 296 742 L119 742 C116 742 114 740 114 737 L114 6 C114 3 116 0 119 0 L296 0 C384 0 455 71 455 159 L455 159 Z M420 159 C420 91 365 35 296 35 L149 35 L149 707 L296 707 C365 707 420 652 420 583 L420 159 Z " />
<glyph glyph-name="E" unicode="E" horiz-adv-x="550" d="M458 6 L458 29 C458 33 455 35 452 35 L151 35 L151 354 L428 354 C431 354 434 356 434 359 L434 383 C434 386 431 389 428 389 L151 389 L151 707 L452 707 C455 707 458 710 458 713 L458 737 C458 740 455 742 452 742 L122 742 C119 742 116 740 116 737 L116 6 C116 3 119 0 122 0 L452 0 C455 0 458 3 458 6 L458 6 Z " />
<glyph glyph-name="F" unicode="F" horiz-adv-x="550" d="M469 713 L469 737 C469 740 467 742 464 742 L134 742 C130 742 128 740 128 737 L128 6 C128 3 130 0 134 0 L157 0 C160 0 163 3 163 6 L163 354 L440 354 C443 354 446 356 446 359 L446 383 C446 386 443 389 440 389 L163 389 L163 707 L464 707 C467 707 469 710 469 713 L469 713 Z " />
<glyph glyph-name="G" unicode="G" horiz-adv-x="550" d="M452 147 L452 383 C452 386 449 389 446 389 L293 389 C290 389 287 386 287 383 L287 359 C287 356 290 354 293 354 L416 354 L416 147 C416 79 361 24 293 24 L257 24 C189 24 134 79 134 147 L134 595 C134 663 189 718 257 718 L293 718 C361 718 416 663 416 595 L416 583 C416 580 419 577 422 577 L446 577 C449 577 452 580 452 583 L452 595 C452 683 381 754 293 754 L257 754 C169 754 98 683 98 595 L98 147 C98 59 169 -12 257 -12 L293 -12 C381 -12 452 59 452 147 L452 147 Z " />
<glyph glyph-name="H" unicode="H" horiz-adv-x="550" d="M446 6 L446 737 C446 740 443 742 440 742 L416 742 C413 742 411 740 411 737 L411 389 L139 389 L139 737 C139 740 137 742 134 742 L110 742 C107 742 104 740 104 737 L104 6 C104 3 107 0 110 0 L134 0 C137 0 139 3 139 6 L139 354 L411 354 L411 6 C411 3 413 0 416 0 L440 0 C443 0 446 3 446 6 L446 6 Z " />
<glyph glyph-name="I" unicode="I" horiz-adv-x="550" d="M458 6 L458 29 C458 33 455 35 452 35 L293 35 L293 707 L440 707 C443 707 446 710 446 713 L446 737 C446 740 443 742 440 742 L110 742 C107 742 104 740 104 737 L104 713 C104 710 107 707 110 707 L257 707 L257 35 L98 35 C95 35 92 33 92 29 L92 6 C92 3 95 0 98 0 L452 0 C455 0 458 3 458 6 L458 6 Z " />
<glyph glyph-name="J" unicode="J" horiz-adv-x="550" d="M434 147 L434 737 C434 740 431 742 428 742 L145 742 C142 742 139 740 139 737 L139 713 C139 710 142 707 145 707 L399 707 L399 147 C399 79 343 24 275 24 L251 24 C183 24 128 79 128 147 L128 206 C128 209 125 212 122 212 L98 212 C95 212 92 209 92 206 L92 147 C92 59 164 -12 251 -12 L275 -12 C363 -12 434 59 434 147 L434 147 Z " />
<glyph glyph-name="K" unicode="K" horiz-adv-x="550" d="M494 9 L227 393 L469 733 C473 738 470 742 465 742 L436 742 C435 742 431 741 431 740 L139 332 L139 737 C139 740 137 742 134 742 L110 742 C107 742 104 740 104 737 L104 6 C104 3 107 0 110 0 L134 0 C137 0 139 3 139 6 L139 271 L205 363 L455 3 C456 2 459 0 460 0 L489 0 C495 0 497 4 494 9 L494 9 Z " />
<glyph glyph-name="L" unicode="L" horiz-adv-x="550" d="M469 6 L469 29 C469 33 467 35 464 35 L187 35 L187 737 C187 740 184 742 181 742 L157 742 C154 742 151 740 151 737 L151 6 C151 3 154 0 157 0 L464 0 C467 0 469 3 469 6 L469 6 Z " />
<glyph glyph-name="M" unicode="M" horiz-adv-x="550" d="M469 6 L469 737 C469 740 467 742 464 742 L420 742 C418 742 415 740 415 739 L275 367 L135 739 C135 740 132 742 130 742 L86 742 C83 742 81 740 81 737 L81 6 C81 3 83 0 86 0 L110 0 C113 0 116 3 116 6 L116 690 L250 334 C250 332 253 330 255 330 L295 330 C297 330 300 332 300 334 L434 690 L434 6 C434 3 437 0 440 0 L464 0 C467 0 469 3 469 6 L469 6 Z " />
<glyph glyph-name="N" unicode="N" horiz-adv-x="550" d="M446 6 L446 737 C446 740 443 742 440 742 L416 742 C413 742 411 740 411 737 L411 53 L159 739 C159 740 155 742 154 742 L110 742 C107 742 104 740 104 737 L104 6 C104 3 107 0 110 0 L134 0 C137 0 139 3 139 6 L139 690 L391 4 C391 2 395 0 396 0 L440 0 C443 0 446 3 446 6 L446 6 Z " />
<glyph glyph-name="O" unicode="O" horiz-adv-x="550" d="M452 147 L452 595 C452 683 381 754 293 754 L257 754 C169 754 98 683 98 595 L98 147 C98 59 169 -12 257 -12 L293 -12 C381 -12 452 59 452 147 L452 147 Z M416 147 C416 79 361 24 293 24 L257 24 C189 24 134 79 134 147 L134 595 C134 664 189 719 257 719 L293 719 C361 719 416 664 416 595 L416 147 Z " />
<glyph glyph-name="P" unicode="P" horiz-adv-x="550" d="M455 418 L455 583 C455 671 384 742 296 742 L119 742 C116 742 114 740 114 737 L114 6 C114 3 116 0 119 0 L143 0 C146 0 149 3 149 6 L149 259 L296 259 C384 259 455 331 455 418 L455 418 Z M420 418 C420 350 365 295 296 295 L149 295 L149 707 L296 707 C365 707 420 652 420 583 L420 418 Z " />
<glyph glyph-name="Q" unicode="Q" horiz-adv-x="550" d="M470 -13 C472 -11 472 -7 470 -5 L417 48 C439 75 452 110 452 147 L452 595 C452 683 381 754 293 754 L257 754 C169 754 98 683 98 595 L98 147 C98 59 169 -12 257 -12 L293 -12 C330 -12 365 1 392 23 L445 -30 C447 -32 451 -32 453 -30 L470 -13 Z M416 147 C416 120 407 94 392 73 L309 156 C307 158 303 158 300 156 L284 140 C282 137 282 133 284 131 L367 48 C346 33 320 24 293 24 L257 24 C189 24 134 79 134 147 L134 595 C134 664 189 719 257 719 L293 719 C361 719 416 664 416 595 L416 147 Z " />
<glyph glyph-name="R" unicode="R" horiz-adv-x="550" d="M455 418 L455 583 C455 671 384 742 296 742 L119 742 C116 742 114 740 114 737 L114 6 C114 3 116 0 119 0 L143 0 C146 0 149 3 149 6 L149 259 L296 259 L308 259 L416 4 C417 2 420 0 422 0 L447 0 C452 0 455 4 453 8 L344 266 C408 287 455 347 455 418 L455 418 Z M420 418 C420 350 365 295 296 295 L149 295 L149 707 L296 707 C365 707 420 652 420 583 L420 418 Z " />
<glyph glyph-name="S" unicode="S" horiz-adv-x="550" d="M458 147 L458 183 C458 282 397 331 320 373 C245 415 139 456 139 560 L139 595 C139 664 195 719 263 719 L287 719 C355 719 411 664 411 595 L411 583 C411 580 413 577 416 577 L440 577 C443 577 446 580 446 583 L446 595 C446 683 375 754 287 754 L263 754 C175 754 104 683 104 595 L104 560 C104 345 422 381 422 183 L422 147 C422 79 367 24 299 24 L251 24 C183 24 128 79 128 147 L128 159 C128 162 125 165 122 165 L98 165 C95 165 92 162 92 159 L92 147 C92 59 164 -12 251 -12 L299 -12 C386 -12 458 59 458 147 L458 147 Z " />
<glyph glyph-name="T" unicode="T" horiz-adv-x="550" d="M469 713 L469 737 C469 740 467 742 464 742 L86 742 C83 742 81 740 81 737 L81 713 C81 710 83 707 86 707 L257 707 L257 6 C257 3 260 0 263 0 L287 0 C290 0 293 3 293 6 L293 707 L464 707 C467 707 469 710 469 713 L469 713 Z " />
<glyph glyph-name="U" unicode="U" horiz-adv-x="550" d="M446 147 L446 737 C446 740 443 742 440 742 L416 742 C413 742 411 740 411 737 L411 147 C411 79 355 24 287 24 L263 24 C195 24 139 79 139 147 L139 737 C139 740 137 742 134 742 L110 742 C107 742 104 740 104 737 L104 147 C104 59 175 -12 263 -12 L287 -12 C375 -12 446 59 446 147 L446 147 Z " />
<glyph glyph-name="V" unicode="V" horiz-adv-x="550" d="M461 735 C462 739 460 742 456 742 L432 742 C429 742 426 740 426 738 L275 47 L124 738 C124 740 121 742 118 742 L94 742 C90 742 88 739 89 735 L247 5 C248 2 251 0 253 0 L296 0 C298 0 301 2 302 5 L461 735 Z " />
<glyph glyph-name="W" unicode="W" horiz-adv-x="550" d="M481 736 C481 740 478 742 475 742 L451 742 C448 742 446 740 446 737 L435 396 L392 51 L302 408 C302 410 299 412 297 412 L252 412 C250 412 247 410 247 408 L157 51 L114 396 L104 737 C104 740 102 742 99 742 L75 742 C72 742 69 740 69 736 L79 393 L127 5 C128 3 131 0 133 0 L177 0 C179 0 182 2 182 4 L275 373 L367 4 C367 2 370 0 373 0 L416 0 C418 0 421 3 422 5 L470 393 L481 736 Z " />
<glyph glyph-name="X" unicode="X" horiz-adv-x="550" d="M465 8 L294 384 L454 734 C456 739 453 742 448 742 L422 742 C421 742 418 740 417 739 L275 427 L133 739 C132 740 129 742 128 742 L102 742 C97 742 94 739 96 734 L256 384 L85 8 C83 4 85 0 90 0 L116 0 C117 0 121 2 121 3 L275 341 L429 3 C429 2 433 0 434 0 L460 0 C465 0 467 4 465 8 L465 8 Z " />
<glyph glyph-name="Y" unicode="Y" horiz-adv-x="550" d="M453 734 C454 739 452 742 447 742 L422 742 C420 742 417 740 416 739 L275 379 L134 739 C133 740 130 742 128 742 L103 742 C98 742 96 739 97 734 L257 326 L257 6 C257 3 260 0 263 0 L287 0 C290 0 293 3 293 6 L293 326 L453 734 Z " />
<glyph glyph-name="Z" unicode="Z" horiz-adv-x="550" d="M458 6 L458 29 C458 33 455 35 452 35 L138 35 L441 685 C445 693 446 700 446 701 L446 737 C446 740 443 742 440 742 L122 742 C119 742 116 740 116 737 L116 713 C116 710 119 707 122 707 L411 707 L110 57 C105 47 104 47 104 36 L104 6 C104 3 107 0 110 0 L452 0 C455 0 458 3 458 6 L458 6 Z " />
<glyph glyph-name="bracketleft" unicode="&#x5b;" horiz-adv-x="550" d="M363 -230 L363 -206 C363 -203 361 -201 357 -201 L222 -201 L222 707 L357 707 C361 707 363 710 363 713 L363 737 C363 740 361 742 357 742 L193 742 C189 742 187 740 187 737 L187 -230 C187 -233 189 -236 193 -236 L357 -236 C361 -236 363 -233 363 -230 L363 -230 Z " />
<glyph glyph-name="backslash" unicode="&#x5c;" horiz-adv-x="550" d="M442 8 L145 739 C144 740 141 742 139 742 L114 742 C109 742 107 739 108 734 L405 4 C406 2 409 0 411 0 L436 0 C441 0 443 4 442 8 L442 8 Z " />
<glyph glyph-name="bracketright" unicode="&#x5d;" horiz-adv-x="550" d="M363 -230 L363 737 C363 740 361 742 357 742 L193 742 C189 742 187 740 187 737 L187 713 C187 710 189 707 193 707 L328 707 L328 -201 L193 -201 C189 -201 187 -203 187 -206 L187 -230 C187 -233 189 -236 193 -236 L357 -236 C361 -236 363 -233 363 -230 L363 -230 Z " />
<glyph glyph-name="asciicircum" unicode="&#x5e;" horiz-adv-x="550" d="M447 362 L303 739 C302 740 299 742 297 742 L253 742 C251 742 248 740 247 739 L103 362 C101 357 104 354 109 354 L134 354 C136 354 139 356 139 357 L275 712 L411 357 C411 356 414 354 416 354 L441 354 C446 354 449 357 447 362 L447 362 Z " />
<glyph glyph-name="underscore" unicode="&#x5f;" horiz-adv-x="550" d="M446 6 L446 29 C446 33 443 35 440 35 L110 35 C107 35 104 33 104 29 L104 6 C104 3 107 0 110 0 L440 0 C443 0 446 3 446 6 L446 6 Z " />
<glyph glyph-name="grave" unicode="&#x60;" horiz-adv-x="550" d="M295 599 L220 693 C219 694 216 695 215 695 L169 695 C163 695 160 690 165 685 L259 591 C260 591 263 589 263 589 L291 589 C297 589 299 594 295 599 L295 599 Z " />
<glyph glyph-name="a" unicode="a" horiz-adv-x="550" d="M505 6 L505 29 C505 33 502 35 499 35 L475 35 C459 35 446 49 446 65 L446 147 L446 371 C446 461 373 519 287 519 L275 519 C187 519 116 447 116 359 L116 336 C116 333 119 330 122 330 L145 330 C148 330 151 333 151 336 L151 359 C151 428 207 483 275 483 L287 483 C357 483 411 438 411 371 C411 254 104 321 104 136 L104 112 C104 42 160 -12 240 -12 L263 -12 C316 -12 375 15 411 58 C414 25 442 0 475 0 L499 0 C502 0 505 3 505 6 L505 6 Z M411 147 C411 82 335 24 263 24 L240 24 C177 24 139 64 139 112 L139 136 C139 256 330 236 411 299 L411 147 Z " />
<glyph glyph-name="b" unicode="b" horiz-adv-x="550" d="M455 147 L455 359 C455 447 384 519 296 519 L273 519 C223 519 178 496 149 459 L149 737 C149 740 146 742 143 742 L119 742 C116 742 114 740 114 737 L114 6 C114 3 116 0 119 0 L143 0 C146 0 149 3 149 6 L149 47 C178 11 223 -12 273 -12 L296 -12 C384 -12 455 59 455 147 L455 147 Z M420 147 C420 79 365 24 296 24 L273 24 C204 24 149 79 149 147 L149 359 C149 428 204 483 273 483 L296 483 C365 483 420 428 420 359 L420 147 Z " />
<glyph glyph-name="c" unicode="c" horiz-adv-x="550" d="M445 136 L445 147 C445 150 443 153 439 153 L416 153 C413 153 410 150 410 147 L410 136 C404 73 351 24 287 24 L263 24 C195 24 139 79 139 147 L139 359 C139 428 195 483 263 483 L287 483 C351 483 404 434 410 371 L410 364 C410 361 413 358 416 358 L439 358 C443 358 445 361 445 364 L445 371 C445 454 370 519 287 519 L263 519 C175 519 104 447 104 359 L104 147 C104 59 175 -12 263 -12 L287 -12 C370 -12 445 52 445 136 L445 136 Z " />
<glyph glyph-name="d" unicode="d" horiz-adv-x="550" d="M436 6 L436 737 C436 740 434 742 431 742 L407 742 C404 742 401 740 401 737 L401 459 C372 496 327 519 277 519 L254 519 C166 519 95 447 95 359 L95 147 C95 59 166 -12 254 -12 L277 -12 C327 -12 372 11 401 47 L401 6 C401 3 404 0 407 0 L431 0 C434 0 436 3 436 6 L436 6 Z M401 147 C401 79 346 24 277 24 L254 24 C185 24 130 79 130 147 L130 359 C130 428 185 483 254 483 L277 483 C346 483 401 428 401 359 L401 147 Z " />
<glyph glyph-name="e" unicode="e" horiz-adv-x="550" d="M446 359 C446 447 375 519 287 519 L263 519 C175 519 104 447 104 359 L104 147 C104 59 175 -12 263 -12 L287 -12 C356 -12 415 32 437 94 C438 97 436 100 433 101 L410 108 C407 109 404 107 403 104 C385 57 340 24 287 24 L263 24 C195 24 139 79 139 147 L139 236 L440 236 C443 236 446 238 446 242 L446 359 Z M411 359 L411 271 L139 271 L139 359 C139 428 195 483 263 483 L287 483 C355 483 411 428 411 359 L411 359 Z " />
<glyph glyph-name="f" unicode="f" horiz-adv-x="550" d="M517 560 L517 595 C517 681 459 754 369 754 L334 754 C244 754 187 681 187 595 L187 483 L98 483 C95 483 92 480 92 477 L92 454 C92 451 95 448 98 448 L187 448 L187 35 L86 35 C83 35 81 33 81 29 L81 6 C81 3 83 0 86 0 L428 0 C431 0 434 3 434 6 L434 29 C434 33 431 35 428 35 L222 35 L222 448 L358 448 C361 448 363 451 363 454 L363 477 C363 480 361 483 358 483 L222 483 L222 595 C222 666 268 719 334 719 L369 719 C436 719 481 666 481 595 L481 560 C481 557 484 554 487 554 L511 554 C514 554 517 557 517 560 L517 560 Z " />
<glyph glyph-name="g" unicode="g" horiz-adv-x="550" d="M436 -88 L436 501 C436 504 434 507 431 507 L407 507 C404 507 401 504 401 501 L401 459 C372 496 327 519 277 519 L254 519 C166 519 95 447 95 359 L95 147 C95 59 166 -12 254 -12 L277 -12 C327 -12 372 11 401 47 L401 -88 C401 -157 346 -212 277 -212 L254 -212 C224 -212 196 -201 175 -184 C172 -182 168 -182 166 -184 L150 -201 C148 -203 148 -207 151 -209 C178 -233 214 -247 254 -247 L277 -247 C365 -247 436 -176 436 -88 L436 -88 Z M401 147 C401 79 346 24 277 24 L254 24 C185 24 130 79 130 147 L130 359 C130 428 185 483 254 483 L277 483 C346 483 401 428 401 359 L401 147 Z " />
<glyph glyph-name="h" unicode="h" horiz-adv-x="550" d="M451 6 L451 359 C451 447 379 519 291 519 L268 519 C218 519 173 496 144 459 L144 737 C144 740 141 742 138 742 L115 742 C112 742 109 740 109 737 L109 6 C109 3 112 0 115 0 L138 0 C141 0 144 3 144 6 L144 359 C144 428 200 483 268 483 L291 483 C360 483 415 428 415 359 L415 6 C415 3 418 0 421 0 L445 0 C448 0 451 3 451 6 L451 6 Z " />
<glyph glyph-name="i" unicode="i" horiz-adv-x="550" d="M340 654 L340 725 C340 728 337 731 334 731 L263 731 C260 731 257 728 257 725 L257 654 C257 651 260 648 263 648 L334 648 C337 648 340 651 340 654 L340 654 Z M493 6 L493 29 C493 33 490 35 487 35 L328 35 L328 501 C328 504 325 507 322 507 L134 507 C130 507 128 504 128 501 L128 477 C128 474 130 471 134 471 L293 471 L293 35 L86 35 C83 35 81 33 81 29 L81 6 C81 3 83 0 86 0 L487 0 C490 0 493 3 493 6 L493 6 Z " />
<glyph glyph-name="j" unicode="j" horiz-adv-x="550" d="M399 654 L399 725 C399 728 396 731 393 731 L322 731 C319 731 316 728 316 725 L316 654 C316 651 319 648 322 648 L393 648 C396 648 399 651 399 654 L399 654 Z M387 -88 L387 501 C387 504 384 507 381 507 L145 507 C142 507 139 504 139 501 L139 477 C139 474 142 471 145 471 L352 471 L352 -88 C352 -157 296 -212 228 -212 C160 -212 104 -157 104 -88 L104 -41 C104 -38 101 -35 98 -35 L75 -35 C72 -35 69 -38 69 -41 L69 -88 C69 -176 140 -247 228 -247 C316 -247 387 -176 387 -88 L387 -88 Z " />
<glyph glyph-name="k" unicode="k" horiz-adv-x="550" d="M471 10 L240 299 L437 497 C442 501 440 507 433 507 L400 507 C399 507 396 505 396 505 L139 249 L139 737 C139 740 137 742 134 742 L110 742 C107 742 104 740 104 737 L104 6 C104 3 107 0 110 0 L134 0 C137 0 139 3 139 6 L139 199 L215 274 L432 2 C433 2 436 0 437 0 L467 0 C473 0 475 5 471 10 L471 10 Z " />
<glyph glyph-name="l" unicode="l" horiz-adv-x="550" d="M493 6 L493 29 C493 33 490 35 487 35 L316 35 L316 737 C316 740 313 742 310 742 L122 742 C119 742 116 740 116 737 L116 713 C116 710 119 707 122 707 L281 707 L281 35 L75 35 C72 35 69 33 69 29 L69 6 C69 3 72 0 75 0 L487 0 C490 0 493 3 493 6 L493 6 Z " />
<glyph glyph-name="m" unicode="m" horiz-adv-x="550" d="M481 6 L481 407 C481 468 431 519 369 519 C330 519 295 498 275 467 C255 498 220 519 181 519 C151 519 124 507 104 488 L104 501 C104 504 101 507 98 507 L75 507 C72 507 69 504 69 501 L69 6 C69 3 72 0 75 0 L98 0 C101 0 104 3 104 6 L104 407 C104 449 138 483 181 483 C223 483 257 449 257 407 L257 5 C257 2 260 0 263 0 L287 0 C290 0 293 2 293 5 L293 407 C293 449 327 483 369 483 C412 483 446 449 446 407 L446 6 C446 3 449 0 452 0 L475 0 C478 0 481 3 481 6 L481 6 Z " />
<glyph glyph-name="n" unicode="n" horiz-adv-x="550" d="M451 6 L451 359 C451 447 379 519 291 519 L268 519 C218 519 173 496 144 459 L144 501 C144 504 141 507 138 507 L115 507 C112 507 109 504 109 501 L109 6 C109 3 112 0 115 0 L138 0 C141 0 144 3 144 6 L144 359 C144 428 200 483 268 483 L291 483 C360 483 415 428 415 359 L415 6 C415 3 418 0 421 0 L445 0 C448 0 451 3 451 6 L451 6 Z " />
<glyph glyph-name="o" unicode="o" horiz-adv-x="550" d="M446 147 L446 359 C446 447 375 519 287 519 L263 519 C175 519 104 447 104 359 L104 147 C104 59 175 -12 263 -12 L287 -12 C375 -12 446 59 446 147 L446 147 Z M411 147 C411 79 355 24 287 24 L263 24 C195 24 139 79 139 147 L139 359 C139 428 195 483 263 483 L287 483 C355 483 411 428 411 359 L411 147 Z " />
<glyph glyph-name="p" unicode="p" horiz-adv-x="550" d="M455 147 L455 359 C455 447 384 519 296 519 L273 519 C223 519 178 496 149 459 L149 501 C149 504 146 507 143 507 L119 507 C116 507 114 504 114 501 L114 -230 C114 -233 116 -236 119 -236 L143 -236 C146 -236 149 -233 149 -230 L149 47 C178 11 223 -12 273 -12 L296 -12 C384 -12 455 59 455 147 L455 147 Z M420 147 C420 79 365 24 296 24 L273 24 C204 24 149 79 149 147 L149 359 C149 428 204 483 273 483 L296 483 C365 483 420 428 420 359 L420 147 Z " />
<glyph glyph-name="q" unicode="q" horiz-adv-x="550" d="M436 -230 L436 501 C436 504 434 507 431 507 L407 507 C404 507 401 504 401 501 L401 459 C372 496 327 519 277 519 L254 519 C166 519 95 447 95 359 L95 147 C95 59 166 -12 254 -12 L277 -12 C327 -12 372 11 401 47 L401 -230 C401 -233 404 -236 407 -236 L431 -236 C434 -236 436 -233 436 -230 L436 -230 Z M401 147 C401 79 346 24 277 24 L254 24 C185 24 130 79 130 147 L130 359 C130 428 185 483 254 483 L277 483 C346 483 401 428 401 359 L401 147 Z " />
<glyph glyph-name="r" unicode="r" horiz-adv-x="550" d="M469 283 L469 359 C469 444 402 519 310 519 L287 519 C195 519 128 444 128 359 L128 35 L39 35 C36 35 33 33 33 29 L33 6 C33 3 36 0 39 0 L369 0 C372 0 375 3 375 6 L375 29 C375 33 372 35 369 35 L163 35 L163 359 C163 433 223 483 287 483 L310 483 C374 483 434 433 434 359 L434 283 C434 280 437 277 440 277 L464 277 C467 277 469 280 469 283 L469 283 Z " />
<glyph glyph-name="s" unicode="s" horiz-adv-x="550" d="M458 136 C458 308 151 239 151 376 C151 442 205 483 275 483 L287 483 C357 483 411 437 411 371 C411 368 413 365 416 365 L440 365 C443 365 446 368 446 371 C446 461 373 519 287 519 L275 519 C189 519 116 465 116 376 C116 203 422 273 422 136 C422 69 369 24 299 24 L263 24 C193 24 139 69 139 136 L139 147 C139 150 137 153 134 153 L110 153 C107 153 104 150 104 147 L104 136 C104 46 177 -12 263 -12 L299 -12 C384 -12 458 46 458 136 L458 136 Z " />
<glyph glyph-name="t" unicode="t" horiz-adv-x="550" d="M469 147 L469 159 C469 162 467 165 464 165 L440 165 C437 165 434 162 434 159 L434 147 C434 79 379 24 310 24 C242 24 187 79 187 147 L187 448 L416 448 C420 448 422 451 422 454 L422 477 C422 480 420 483 416 483 L187 483 L187 737 C187 740 184 742 181 742 L157 742 C154 742 151 740 151 737 L151 483 L63 483 C60 483 57 480 57 477 L57 454 C57 451 60 448 63 448 L151 448 L151 147 C151 59 222 -12 310 -12 C398 -12 469 59 469 147 L469 147 Z " />
<glyph glyph-name="u" unicode="u" horiz-adv-x="550" d="M441 6 L441 501 C441 504 438 507 435 507 L412 507 C409 507 406 504 406 501 L406 147 C406 79 350 24 282 24 L259 24 C190 24 135 79 135 147 L135 501 C135 504 132 507 129 507 L105 507 C102 507 99 504 99 501 L99 147 C99 59 171 -12 259 -12 L282 -12 C332 -12 377 11 406 47 L406 6 C406 3 409 0 412 0 L435 0 C438 0 441 3 441 6 L441 6 Z " />
<glyph glyph-name="v" unicode="v" horiz-adv-x="550" d="M474 499 C476 503 473 507 469 507 L444 507 C442 507 439 505 438 503 L275 38 L112 503 C111 505 108 507 106 507 L81 507 C77 507 74 503 76 499 L249 4 C250 2 253 0 255 0 L295 0 C297 0 300 2 301 4 L474 499 Z " />
<glyph glyph-name="w" unicode="w" horiz-adv-x="550" d="M470 501 C470 504 468 507 464 507 L441 507 C438 507 435 504 435 501 L424 279 L380 39 L301 361 C300 363 297 365 295 365 L255 365 C253 365 250 363 249 361 L170 38 L126 279 L115 501 C115 504 112 507 109 507 L86 507 C82 507 80 504 80 501 L91 274 L140 5 C141 2 144 0 146 0 L191 0 C193 0 196 2 197 4 L275 320 L353 4 C354 2 357 0 359 0 L404 0 C406 0 409 2 410 5 L459 275 L470 501 Z " />
<glyph glyph-name="x" unicode="x" horiz-adv-x="550" d="M463 9 L296 262 L451 498 C454 502 452 507 446 507 L418 507 C417 507 414 505 413 504 L275 294 L137 504 C136 505 133 507 132 507 L104 507 C98 507 96 502 99 498 L254 262 L88 9 C85 4 87 0 93 0 L121 0 C122 0 125 2 126 3 L275 230 L425 3 C426 2 429 0 430 0 L458 0 C464 0 466 4 463 9 L463 9 Z " />
<glyph glyph-name="y" unicode="y" horiz-adv-x="550" d="M443 499 C444 503 442 507 437 507 L415 507 C413 507 410 504 409 502 L285 59 L151 503 C151 504 148 507 146 507 L121 507 C117 507 114 503 115 499 L267 -2 C256 -38 250 -61 243 -79 C216 -153 173 -153 98 -153 L86 -153 C83 -153 81 -156 81 -159 L81 -183 C81 -186 83 -189 86 -189 L98 -189 C186 -189 251 -180 280 -82 C310 18 420 417 443 499 L443 499 Z " />
<glyph glyph-name="z" unicode="z" horiz-adv-x="550" d="M458 6 L458 29 C458 33 455 35 452 35 L139 35 L445 458 C445 459 446 461 446 462 L446 501 C446 504 443 507 440 507 L122 507 C119 507 116 504 116 501 L116 477 C116 474 119 471 122 471 L416 471 L105 48 L104 45 L104 6 C104 3 107 0 110 0 L452 0 C455 0 458 3 458 6 L458 6 Z " />
<glyph glyph-name="braceleft" unicode="&#x7b;" horiz-adv-x="550" d="M422 -230 L422 -206 C422 -203 420 -200 416 -200 L405 -200 C336 -200 281 -145 281 -77 L281 112 C281 174 242 227 196 253 C242 280 281 333 281 395 L281 583 C281 652 336 707 405 707 L416 707 C420 707 422 710 422 713 L422 737 C422 740 420 742 416 742 L405 742 C317 742 246 671 246 583 L246 395 C246 326 182 271 134 271 C130 271 128 268 128 265 L128 242 C128 238 130 236 134 236 C182 236 246 181 246 112 L246 -77 C246 -164 317 -236 405 -236 L416 -236 C420 -236 422 -233 422 -230 L422 -230 Z " />
<glyph glyph-name="bar" unicode="&#x7c;" horiz-adv-x="550" d="M293 -230 L293 737 C293 740 290 742 287 742 L263 742 C260 742 257 740 257 737 L257 -230 C257 -233 260 -236 263 -236 L287 -236 C290 -236 293 -233 293 -230 L293 -230 Z " />
<glyph glyph-name="braceright" unicode="&#x7d;" horiz-adv-x="550" d="M422 242 L422 265 C422 268 420 271 416 271 C368 271 304 326 304 395 L304 583 C304 671 233 742 145 742 L134 742 C130 742 128 740 128 737 L128 713 C128 710 130 707 134 707 L145 707 C214 707 269 652 269 583 L269 395 C269 333 308 280 354 253 C308 227 269 174 269 112 L269 -77 C269 -145 214 -200 145 -200 L134 -200 C130 -200 128 -203 128 -206 L128 -230 C128 -233 130 -236 134 -236 L145 -236 C233 -236 304 -164 304 -77 L304 112 C304 181 368 236 416 236 C420 236 422 238 422 242 L422 242 Z " />
<glyph glyph-name="asciitilde" unicode="&#x7e;" horiz-adv-x="550" d="M458 289 L458 301 C458 304 455 306 452 306 L428 306 C425 306 422 304 422 301 L422 289 C422 275 410 250 386 240 C359 229 326 239 288 278 C182 383 92 305 92 242 L92 230 C92 227 95 224 98 224 L122 224 C125 224 128 227 128 230 L128 242 C128 256 140 280 164 290 C191 301 224 291 262 253 C368 148 458 225 458 289 L458 289 Z " />
<glyph glyph-name="nbspace" unicode="&#xa0;" horiz-adv-x="550" d="" />
<glyph glyph-name="exclamdown" unicode="&#xa1;" horiz-adv-x="550" d="M328 407 L328 501 C328 504 325 507 322 507 L228 507 C225 507 222 504 222 501 L222 407 C222 403 225 401 228 401 L322 401 C325 401 328 403 328 407 L328 407 Z M293 -230 L293 265 C293 268 290 271 287 271 L263 271 C260 271 257 268 257 265 L257 -230 C257 -233 260 -236 263 -236 L287 -236 C290 -236 293 -233 293 -230 L293 -230 Z " />
<glyph glyph-name="cent" unicode="&#xa2;" horiz-adv-x="550" d="M445 136 L445 147 C445 150 443 153 439 153 L416 153 C413 153 410 150 410 147 L410 136 C404 73 351 24 287 24 L263 24 C246 24 229 27 214 34 L367 454 C391 433 407 404 410 371 L410 364 C410 361 413 358 416 358 L439 358 C443 358 445 361 445 364 L445 371 C445 421 419 463 380 490 L404 557 C406 560 404 564 401 565 L379 573 C376 574 372 572 371 570 L348 507 C329 514 308 519 287 519 L263 519 C175 519 104 447 104 359 L104 147 C104 94 130 47 171 18 L146 -51 C144 -54 146 -57 149 -58 L171 -66 C174 -67 178 -66 179 -63 L202 1 C221 -7 241 -12 263 -12 L287 -12 C370 -12 445 52 445 136 L445 136 Z M336 473 L183 53 C156 76 139 109 139 147 L139 359 C139 428 195 483 263 483 L287 483 C304 483 321 480 336 473 L336 473 Z " />
<glyph glyph-name="sterling" unicode="&#xa3;" horiz-adv-x="550" d="M481 6 L481 29 C481 33 478 35 475 35 L116 35 C152 65 175 109 175 159 L175 354 L381 354 C384 354 387 356 387 359 L387 383 C387 386 384 389 381 389 L175 389 L175 595 C175 664 230 719 299 719 L322 719 C390 719 446 664 446 595 L446 513 C446 510 449 507 452 507 L475 507 C478 507 481 510 481 513 L481 595 C481 683 410 754 322 754 L299 754 C211 754 139 683 139 595 L139 389 L75 389 C72 389 69 386 69 383 L69 359 C69 356 72 354 75 354 L139 354 L139 159 C139 91 84 35 16 35 C13 35 10 33 10 29 L10 6 C10 3 13 0 16 0 L475 0 C478 0 481 3 481 6 L481 6 Z " />
<glyph glyph-name="yen" unicode="&#xa5;" horiz-adv-x="550" d="M453 734 C454 739 452 742 447 742 L422 742 C420 742 417 740 416 739 L275 379 L134 739 C133 740 130 742 128 742 L103 742 C98 742 96 739 97 734 L246 354 L134 354 C130 354 128 351 128 348 L128 324 C128 321 130 318 134 318 L257 318 L257 236 L134 236 C130 236 128 233 128 230 L128 206 C128 203 130 200 134 200 L257 200 L257 6 C257 3 260 0 263 0 L287 0 C290 0 293 3 293 6 L293 200 L416 200 C420 200 422 203 422 206 L422 230 C422 233 420 236 416 236 L293 236 L293 318 L416 318 C420 318 422 321 422 324 L422 348 C422 351 420 354 416 354 L303 354 L453 734 Z " />
<glyph glyph-name="brokenbar" unicode="&#xa6;" horiz-adv-x="550" d="M293 477 L293 737 C293 740 290 742 287 742 L263 742 C260 742 257 740 257 737 L257 477 C257 474 260 471 263 471 L287 471 C290 471 293 474 293 477 L293 477 Z M293 6 L293 265 C293 268 290 271 287 271 L263 271 C260 271 257 268 257 265 L257 6 C257 3 260 0 263 0 L287 0 C290 0 293 3 293 6 L293 6 Z " />
<glyph glyph-name="section" unicode="&#xa7;" horiz-adv-x="550" d="M493 194 C493 304 424 361 340 410 C263 454 139 502 139 607 C139 673 193 719 263 719 L287 719 C351 719 410 670 410 607 L410 595 C410 592 413 589 416 589 L439 589 C443 589 445 592 445 595 L445 607 C445 690 370 754 287 754 L263 754 C177 754 104 697 104 607 C104 561 119 528 160 480 C95 443 57 392 57 312 C57 203 126 146 210 97 C287 53 411 5 411 -100 C411 -166 357 -212 287 -212 L251 -212 C183 -212 128 -157 128 -88 L128 -65 C128 -62 125 -59 122 -59 L98 -59 C95 -59 92 -62 92 -65 L92 -88 C92 -176 164 -248 251 -248 L287 -248 C373 -248 446 -190 446 -100 C446 -55 431 -21 390 27 C455 63 493 115 493 194 L493 194 Z M458 194 C458 97 394 59 357 59 L346 59 C315 79 288 93 261 108 C180 153 92 204 92 312 C92 410 156 448 193 448 L204 448 C235 428 262 413 289 399 C370 354 458 303 458 194 L458 194 Z " />
<glyph glyph-name="dieresis" unicode="&#xa8;" horiz-adv-x="550" d="M399 595 L399 666 C399 669 396 672 393 672 L334 672 C331 672 328 669 328 666 L328 595 C328 592 331 589 334 589 L393 589 C396 589 399 592 399 595 L399 595 Z M222 595 L222 666 C222 669 219 672 216 672 L157 672 C154 672 151 669 151 666 L151 595 C151 592 154 589 157 589 L216 589 C219 589 222 592 222 595 L222 595 Z " />
<glyph glyph-name="copyright" unicode="&#xa9;" horiz-adv-x="550" d="M481 501 L481 548 C481 662 389 754 275 754 C161 754 69 662 69 548 L69 501 C69 387 161 294 275 294 C389 294 481 387 481 501 L481 501 Z M446 501 C446 406 369 330 275 330 C181 330 104 406 104 501 L104 548 C104 642 181 719 275 719 C369 719 446 642 446 548 L446 501 Z M375 477 L375 489 C375 492 372 495 369 495 L346 495 C343 495 340 492 340 489 L340 477 C340 454 321 436 299 436 L251 436 C229 436 210 454 210 477 L210 571 C210 594 229 613 251 613 L299 613 C321 613 340 594 340 571 L340 560 C340 556 343 554 346 554 L369 554 C372 554 375 556 375 560 L375 571 C375 614 341 648 299 648 L251 648 C209 648 175 614 175 571 L175 477 C175 435 209 401 251 401 L299 401 C341 401 375 435 375 477 L375 477 Z " />
<glyph glyph-name="ordfeminine" unicode="&#xaa;" horiz-adv-x="550" d="M411 466 L411 489 C411 492 408 495 405 495 L393 495 C383 495 375 503 375 513 L375 737 C375 740 372 742 369 742 L346 742 C343 742 340 740 340 737 L340 717 C317 740 286 754 251 754 L240 754 C171 754 116 699 116 631 L116 583 C116 515 171 460 240 460 L251 460 C287 460 319 475 342 499 C348 476 368 460 393 460 L405 460 C408 460 411 462 411 466 L411 466 Z M340 583 C340 535 300 495 251 495 L240 495 C191 495 151 535 151 583 L151 631 C151 679 191 719 240 719 L251 719 C300 719 340 679 340 631 L340 583 Z M399 348 L399 371 C399 374 396 377 393 377 L134 377 C130 377 128 374 128 371 L128 348 C128 345 130 342 134 342 L393 342 C396 342 399 345 399 348 L399 348 Z " />
<glyph glyph-name="guillemotleft" unicode="&#xab;" horiz-adv-x="550" d="M413 403 C416 408 414 412 408 412 L382 412 C381 412 378 411 377 410 L284 270 L283 267 L283 240 L284 237 L377 97 C378 96 381 94 382 94 L408 94 C414 94 416 99 413 103 L319 245 L319 262 L413 403 Z M258 103 L163 245 L163 262 L258 403 C261 408 258 412 253 412 L227 412 C226 412 222 411 222 410 L129 270 L128 267 L128 240 L129 237 L222 97 C222 96 226 94 227 94 L253 94 C258 94 261 99 258 103 L258 103 Z " />
<glyph glyph-name="logicalnot" unicode="&#xac;" horiz-adv-x="550" d="M422 159 L422 277 C422 280 420 283 416 283 L134 283 C130 283 128 280 128 277 L128 253 C128 250 130 247 134 247 L387 247 L387 159 C387 156 390 153 393 153 L416 153 C420 153 422 156 422 159 L422 159 Z " />
<glyph glyph-name="registered" unicode="&#xae;" horiz-adv-x="550" d="M481 501 L481 548 C481 662 389 754 275 754 C161 754 69 662 69 548 L69 501 C69 387 161 294 275 294 C389 294 481 387 481 501 L481 501 Z M446 501 C446 406 369 330 275 330 C181 330 104 406 104 501 L104 548 C104 642 181 719 275 719 C369 719 446 642 446 548 L446 501 Z M376 409 L328 489 C360 507 375 531 375 560 L375 571 C375 614 341 648 299 648 L193 648 C189 648 187 645 187 642 L187 406 C187 403 189 401 193 401 L216 401 C219 401 222 403 222 406 L222 483 L291 483 L338 403 C339 402 342 401 343 401 L371 401 C377 401 379 405 376 409 L376 409 Z M340 560 C340 537 321 518 299 518 L222 518 L222 613 L299 613 C321 613 340 594 340 571 L340 560 Z " />
<glyph glyph-name="macron" unicode="&#xaf;" horiz-adv-x="550" d="M422 631 L422 654 C422 657 420 660 416 660 L134 660 C130 660 128 657 128 654 L128 631 C128 627 130 625 134 625 L416 625 C420 625 422 627 422 631 L422 631 Z " />
<glyph glyph-name="degree" unicode="&#xb0;" horiz-adv-x="550" d="M422 548 L422 595 C422 683 351 754 263 754 C175 754 104 683 104 595 L104 548 C104 460 175 389 263 389 C351 389 422 460 422 548 L422 548 Z M387 548 C387 480 332 424 263 424 C195 424 139 480 139 548 L139 595 C139 664 195 719 263 719 C332 719 387 664 387 595 L387 548 Z " />
<glyph glyph-name="plusminus" unicode="&#xb1;" horiz-adv-x="550" d="M422 359 L422 383 C422 386 420 389 416 389 L293 389 L293 466 C293 469 290 471 287 471 L263 471 C260 471 257 469 257 466 L257 389 L134 389 C130 389 128 386 128 383 L128 359 C128 356 130 354 134 354 L257 354 L257 277 C257 274 260 271 263 271 L287 271 C290 271 293 274 293 277 L293 354 L416 354 C420 354 422 356 422 359 L422 359 Z M422 147 L422 171 C422 174 420 177 416 177 L134 177 C130 177 128 174 128 171 L128 147 C128 144 130 141 134 141 L416 141 C420 141 422 144 422 147 L422 147 Z " />
<glyph glyph-name="twosuperior" unicode="&#xb2;" horiz-adv-x="550" d="M234 466 L234 489 C234 492 228 495 228 495 L98 495 L98 508 C98 556 228 600 228 678 C228 720 194 754 151 754 L139 754 C97 754 63 720 63 678 C63 675 66 672 69 672 L92 672 C95 672 98 675 98 678 C98 700 117 719 139 719 L151 719 C174 719 192 700 192 678 C192 621 63 581 63 508 L63 466 C63 462 66 460 69 460 L228 460 C231 460 234 462 234 466 L234 466 Z " />
<glyph glyph-name="threesuperior" unicode="&#xb3;" horiz-adv-x="550" d="M238 524 L238 548 C238 590 204 624 162 624 L157 624 L230 699 C230 700 231 703 231 703 L231 736 C231 740 229 742 226 742 L86 742 C83 742 81 740 81 736 L81 713 C81 710 83 707 86 707 L188 707 L122 639 C122 639 121 636 121 635 L121 595 C121 592 123 589 126 589 C141 589 135 589 162 589 C185 589 203 571 203 548 L203 524 C203 501 185 483 162 483 L138 483 C116 483 97 501 97 524 C97 527 94 530 91 530 L68 530 C64 530 62 527 62 524 C62 482 96 448 138 448 L162 448 C204 448 238 482 238 524 L238 524 Z " />
<glyph glyph-name="acute" unicode="&#xb4;" horiz-adv-x="550" d="M385 685 C390 690 387 695 381 695 L335 695 C334 695 331 694 330 693 L255 599 C251 594 253 589 259 589 L287 589 C287 589 290 591 291 591 L385 685 Z " />
<glyph glyph-name="mu" unicode="&#xb5;" horiz-adv-x="550" d="M446 6 L446 501 C446 504 443 507 440 507 L416 507 C413 507 411 504 411 501 L411 147 C411 79 355 24 287 24 L263 24 C195 24 139 79 139 147 L139 501 C139 504 137 507 134 507 L110 507 C107 507 104 504 104 501 L104 -230 C104 -233 107 -236 110 -236 L134 -236 C137 -236 139 -233 139 -230 L139 47 C169 11 213 -12 263 -12 L287 -12 C337 -12 381 11 411 47 L411 6 C411 3 413 0 416 0 L440 0 C443 0 446 3 446 6 L446 6 Z " />
<glyph glyph-name="paragraph" unicode="&#xb6;" horiz-adv-x="550" d="M434 -230 L434 737 C434 740 431 742 428 742 L228 742 C140 742 69 671 69 583 L69 524 C69 437 140 365 228 365 L257 365 L257 -230 C257 -233 260 -236 263 -236 L287 -236 C290 -236 293 -233 293 -230 L293 707 L399 707 L399 -230 C399 -233 402 -236 405 -236 L428 -236 C431 -236 434 -233 434 -230 L434 -230 Z " />
<glyph glyph-name="periodcentered" unicode="&#xb7;" horiz-adv-x="550" d="M328 253 C328 283 304 306 275 306 C246 306 222 283 222 253 C222 224 246 200 275 200 C304 200 328 224 328 253 L328 253 Z " />
<glyph glyph-name="cedilla" unicode="&#xb8;" horiz-adv-x="550" d="M307 6 L270 6 L232 -110 C230 -114 233 -118 237 -118 L262 -118 C264 -118 267 -116 268 -114 L307 6 Z " />
<glyph glyph-name="onesuperior" unicode="&#xb9;" horiz-adv-x="550" d="M240 454 L240 477 C240 480 237 483 234 483 L175 483 L175 737 C175 740 172 742 169 742 L129 742 C128 742 125 741 125 741 L71 687 C69 685 69 681 71 678 L87 662 C90 660 94 660 96 662 L139 705 L139 483 L69 483 C66 483 63 480 63 477 L63 454 C63 451 66 448 69 448 L234 448 C237 448 240 451 240 454 L240 454 Z " />
<glyph glyph-name="ordmasculine" unicode="&#xba;" horiz-adv-x="550" d="M387 583 L387 631 C387 699 332 754 263 754 L240 754 C171 754 116 699 116 631 L116 583 C116 515 171 460 240 460 L263 460 C332 460 387 515 387 583 L387 583 Z M352 583 C352 535 312 495 263 495 L240 495 C191 495 151 535 151 583 L151 631 C151 679 191 719 240 719 L263 719 C312 719 352 679 352 631 L352 583 Z M375 348 L375 371 C375 374 372 377 369 377 L134 377 C130 377 128 374 128 371 L128 348 C128 345 130 342 134 342 L369 342 C372 342 375 345 375 348 L375 348 Z " />
<glyph glyph-name="guillemotright" unicode="&#xbb;" horiz-adv-x="550" d="M413 240 L413 267 L412 270 L319 410 C318 411 315 412 314 412 L288 412 C282 412 280 408 283 403 L378 262 L378 245 L283 103 C280 99 282 94 288 94 L314 94 C315 94 318 96 319 97 L412 237 L413 240 L413 240 Z M258 240 L258 267 L257 270 L163 410 C163 411 160 412 159 412 L133 412 C127 412 124 408 128 403 L222 262 L222 245 L128 103 C124 99 127 94 133 94 L159 94 C160 94 163 96 163 97 L257 237 L258 240 L258 240 Z " />
<glyph glyph-name="onequarter" unicode="&#xbc;" horiz-adv-x="550" d="M240 454 L240 477 C240 480 237 483 234 483 L175 483 L175 737 C175 740 172 742 169 742 L129 742 C128 742 125 741 125 741 L71 687 C69 685 69 681 71 678 L87 662 C90 660 94 660 96 662 L139 705 L139 483 L69 483 C66 483 63 480 63 477 L63 454 C63 451 66 448 69 448 L234 448 C237 448 240 451 240 454 L240 454 Z M428 500 C430 503 430 506 428 509 L411 525 C409 528 405 528 403 525 L121 243 C118 241 118 237 121 235 L137 218 C140 216 143 216 146 218 L428 500 Z M475 59 L475 82 C475 86 473 88 469 88 L434 88 L434 136 C434 139 431 141 428 141 L405 141 C402 141 399 139 399 136 L399 88 L318 88 L404 286 C406 291 403 295 398 295 L372 295 C371 295 367 293 367 291 L282 92 L281 90 L281 59 C281 56 284 53 287 53 L399 53 L399 6 C399 3 402 0 405 0 L428 0 C431 0 434 3 434 6 L434 53 L469 53 C473 53 475 56 475 59 L475 59 Z " />
<glyph glyph-name="onehalf" unicode="&#xbd;" horiz-adv-x="550" d="M240 454 L240 477 C240 480 237 483 234 483 L175 483 L175 737 C175 740 172 742 169 742 L129 742 C128 742 125 741 125 741 L71 687 C69 685 69 681 71 678 L87 662 C90 660 94 660 96 662 L139 705 L139 483 L69 483 C66 483 63 480 63 477 L63 454 C63 451 66 448 69 448 L234 448 C237 448 240 451 240 454 L240 454 Z M428 500 C430 502 430 506 428 509 L411 525 C409 528 405 527 403 525 L121 243 C118 241 118 237 121 235 L137 218 C140 216 143 216 146 218 L428 500 Z M487 6 L487 30 C487 33 481 35 481 35 L352 35 L352 48 C351 97 481 140 481 218 C481 260 447 295 405 295 L393 295 C351 295 316 260 316 218 C316 215 319 212 322 212 L346 212 C349 212 352 215 352 218 C352 241 370 259 393 259 L405 259 C427 259 446 241 446 218 C446 161 316 121 316 48 L316 6 C316 3 319 0 322 0 L481 0 C484 0 487 3 487 6 L487 6 Z " />
<glyph glyph-name="threequarters" unicode="&#xbe;" horiz-adv-x="550" d="M238 524 L238 548 C238 590 204 624 162 624 L157 624 L230 699 C230 700 231 703 231 703 L231 736 C231 740 229 742 226 742 L86 742 C83 742 81 740 81 736 L81 713 C81 710 83 707 86 707 L188 707 L122 639 C122 639 121 636 121 635 L121 595 C121 592 123 589 126 589 C141 589 135 589 162 589 C185 589 203 571 203 548 L203 524 C203 501 185 483 162 483 L138 483 C116 483 97 501 97 524 C97 527 94 530 91 530 L68 530 C64 530 62 527 62 524 C62 482 96 448 138 448 L162 448 C204 448 238 482 238 524 L238 524 Z M428 500 C430 502 430 506 428 509 L411 525 C409 528 405 527 403 525 L121 243 C118 241 118 237 121 235 L137 218 C140 216 143 216 146 218 L428 500 Z M475 59 L475 82 C475 86 473 88 469 88 L434 88 L434 136 C434 139 431 141 428 141 L405 141 C402 141 399 139 399 136 L399 88 L318 88 L404 286 C406 291 403 295 398 295 L372 295 C371 295 367 293 367 291 L282 92 L281 90 L281 59 C281 56 284 53 287 53 L399 53 L399 6 C399 3 402 0 405 0 L428 0 C431 0 434 3 434 6 L434 53 L469 53 C473 53 475 56 475 59 L475 59 Z " />
<glyph glyph-name="questiondown" unicode="&#xbf;" horiz-adv-x="550" d="M352 407 L352 501 C352 504 349 507 346 507 L251 507 C248 507 246 504 246 501 L246 407 C246 403 248 401 251 401 L346 401 C349 401 352 403 352 407 L352 407 Z M446 -88 L446 -65 C446 -62 443 -59 440 -59 L416 -59 C413 -59 411 -62 411 -65 L411 -88 C411 -157 355 -212 287 -212 L263 -212 C195 -212 139 -157 139 -88 L139 -65 C139 -23 149 30 238 98 C313 153 316 204 316 265 C316 268 313 271 310 271 L287 271 C284 271 281 268 281 265 C281 209 279 172 217 126 C119 52 104 -12 104 -65 L104 -88 C104 -176 175 -248 263 -248 L287 -248 C375 -248 446 -176 446 -88 L446 -88 Z " />
<glyph glyph-name="Agrave" unicode="&#xc0;" horiz-adv-x="550" d="M446 278 L446 280 L325 738 C325 740 322 742 319 742 L231 742 C228 742 225 740 225 738 L104 280 L104 278 L104 6 C104 3 107 0 110 0 L134 0 C137 0 139 3 139 6 L139 259 L411 259 L411 6 C411 3 413 0 416 0 L440 0 C443 0 446 3 446 6 L446 278 Z M405 295 L145 295 L253 707 L297 707 L405 295 Z M295 835 L220 929 C219 929 216 931 215 931 L169 931 C163 931 160 926 165 921 L259 827 C260 826 263 825 263 825 L291 825 C297 825 299 830 295 835 L295 835 Z " />
<glyph glyph-name="Aacute" unicode="&#xc1;" horiz-adv-x="550" d="M446 278 L446 280 L325 738 C325 740 322 742 319 742 L231 742 C228 742 225 740 225 738 L104 280 L104 278 L104 6 C104 3 107 0 110 0 L134 0 C137 0 139 3 139 6 L139 259 L411 259 L411 6 C411 3 413 0 416 0 L440 0 C443 0 446 3 446 6 L446 278 Z M405 295 L145 295 L253 707 L297 707 L405 295 Z M385 921 C390 926 387 931 381 931 L335 931 C334 931 331 929 330 929 L255 835 C251 830 253 825 259 825 L287 825 C287 825 290 826 291 827 L385 921 Z " />
<glyph glyph-name="Acircumflex" unicode="&#xc2;" horiz-adv-x="550" d="M446 278 L446 280 L325 738 C325 740 322 742 319 742 L231 742 C228 742 225 740 225 738 L104 280 L104 278 L104 6 C104 3 107 0 110 0 L134 0 C137 0 139 3 139 6 L139 259 L411 259 L411 6 C411 3 413 0 416 0 L440 0 C443 0 446 3 446 6 L446 278 Z M405 295 L145 295 L253 707 L297 707 L405 295 Z M388 835 L313 929 C312 929 309 931 308 931 L242 931 C241 931 238 929 237 929 L162 835 C158 830 160 825 166 825 L191 825 C192 825 195 826 195 827 L275 902 L355 827 C355 826 358 825 359 825 L384 825 C390 825 392 830 388 835 L388 835 Z " />
<glyph glyph-name="Atilde" unicode="&#xc3;" horiz-adv-x="550" d="M446 278 L446 280 L325 738 C325 740 322 742 319 742 L231 742 C228 742 225 740 225 738 L104 280 L104 278 L104 6 C104 3 107 0 110 0 L134 0 C137 0 139 3 139 6 L139 259 L411 259 L411 6 C411 3 413 0 416 0 L440 0 C443 0 446 3 446 6 L446 278 Z M405 295 L145 295 L253 707 L297 707 L405 295 Z M410 883 C411 887 408 890 404 890 L381 890 C378 890 375 887 375 885 C372 858 345 829 285 869 C208 920 144 887 140 825 C139 822 142 819 146 819 L169 819 C172 819 175 822 175 824 C178 851 205 880 265 840 C342 789 406 822 410 883 L410 883 Z " />
<glyph glyph-name="Adieresis" unicode="&#xc4;" horiz-adv-x="550" d="M446 278 L446 280 L325 738 C325 740 322 742 319 742 L231 742 C228 742 225 740 225 738 L104 280 L104 278 L104 6 C104 3 107 0 110 0 L134 0 C137 0 139 3 139 6 L139 259 L411 259 L411 6 C411 3 413 0 416 0 L440 0 C443 0 446 3 446 6 L446 278 Z M405 295 L145 295 L253 707 L297 707 L405 295 Z M399 854 L399 925 C399 928 396 931 393 931 L334 931 C331 931 328 928 328 925 L328 854 C328 851 331 849 334 849 L393 849 C396 849 399 851 399 854 L399 854 Z M222 854 L222 925 C222 928 219 931 216 931 L157 931 C154 931 151 928 151 925 L151 854 C151 851 154 849 157 849 L216 849 C219 849 222 851 222 854 L222 854 Z " />
<glyph glyph-name="Aring" unicode="&#xc5;" horiz-adv-x="550" d="M446 278 L446 280 L325 738 C325 740 322 742 319 742 L231 742 C228 742 225 740 225 738 L104 280 L104 278 L104 6 C104 3 107 0 110 0 L134 0 C137 0 139 3 139 6 L139 259 L411 259 L411 6 C411 3 413 0 416 0 L440 0 C443 0 446 3 446 6 L446 278 Z M405 295 L145 295 L253 707 L297 707 L405 295 Z M357 866 C357 912 321 949 275 949 C229 949 192 912 192 866 C192 821 229 784 275 784 C321 784 357 821 357 866 L357 866 Z M322 866 C322 840 301 819 275 819 C249 819 228 840 228 866 C228 892 249 913 275 913 C301 913 322 892 322 866 L322 866 Z " />
<glyph glyph-name="AE" unicode="&#xc6;" horiz-adv-x="550" d="M481 6 L481 29 C481 33 478 35 475 35 L316 35 L316 354 L452 354 C455 354 458 356 458 359 L458 383 C458 386 455 389 452 389 L316 389 L316 707 L475 707 C478 707 481 710 481 713 L481 737 C481 740 478 742 475 742 L195 742 C193 742 190 740 190 738 L69 280 L69 278 L69 6 C69 3 72 0 75 0 L98 0 C101 0 104 3 104 6 L104 259 L281 259 L281 6 C281 3 284 0 287 0 L475 0 C478 0 481 3 481 6 L481 6 Z M287 289 L102 289 L213 713 L287 713 L287 289 Z " />
<glyph glyph-name="Ccedilla" unicode="&#xc7;" horiz-adv-x="550" d="M458 147 L458 171 C458 174 455 177 452 177 L428 177 C425 177 422 174 422 171 L422 147 C422 79 367 24 299 24 L263 24 C195 24 139 79 139 147 L139 595 C139 664 195 719 263 719 L299 719 C367 719 422 664 422 595 L422 583 C422 580 425 577 428 577 L452 577 C455 577 458 580 458 583 L458 595 C458 683 386 754 299 754 L263 754 C175 754 104 683 104 595 L104 147 C104 68 162 3 264 -13 L232 -110 C230 -114 233 -118 237 -118 L262 -118 C264 -118 267 -116 268 -114 L301 -12 C395 -2 458 65 458 147 L458 147 Z " />
<glyph glyph-name="Egrave" unicode="&#xc8;" horiz-adv-x="550" d="M458 6 L458 29 C458 33 455 35 452 35 L151 35 L151 354 L428 354 C431 354 434 356 434 359 L434 383 C434 386 431 389 428 389 L151 389 L151 707 L452 707 C455 707 458 710 458 713 L458 737 C458 740 455 742 452 742 L122 742 C119 742 116 740 116 737 L116 6 C116 3 119 0 122 0 L452 0 C455 0 458 3 458 6 L458 6 Z M295 835 L220 929 C219 929 216 931 215 931 L169 931 C163 931 160 926 165 921 L259 827 C260 826 263 825 263 825 L291 825 C297 825 299 830 295 835 L295 835 Z " />
<glyph glyph-name="Eacute" unicode="&#xc9;" horiz-adv-x="550" d="M458 6 L458 29 C458 33 455 35 452 35 L151 35 L151 354 L428 354 C431 354 434 356 434 359 L434 383 C434 386 431 389 428 389 L151 389 L151 707 L452 707 C455 707 458 710 458 713 L458 737 C458 740 455 742 452 742 L122 742 C119 742 116 740 116 737 L116 6 C116 3 119 0 122 0 L452 0 C455 0 458 3 458 6 L458 6 Z M385 921 C390 926 387 931 381 931 L335 931 C334 931 331 929 330 929 L255 835 C251 830 253 825 259 825 L287 825 C287 825 290 826 291 827 L385 921 Z " />
<glyph glyph-name="Ecircumflex" unicode="&#xca;" horiz-adv-x="550" d="M458 6 L458 29 C458 33 455 35 452 35 L151 35 L151 354 L428 354 C431 354 434 356 434 359 L434 383 C434 386 431 389 428 389 L151 389 L151 707 L452 707 C455 707 458 710 458 713 L458 737 C458 740 455 742 452 742 L122 742 C119 742 116 740 116 737 L116 6 C116 3 119 0 122 0 L452 0 C455 0 458 3 458 6 L458 6 Z M400 835 L325 929 C324 929 321 931 320 931 L254 931 C253 931 249 929 249 929 L174 835 C170 830 172 825 178 825 L203 825 C204 825 207 826 207 827 L287 902 L366 827 C367 826 370 825 371 825 L395 825 C402 825 404 830 400 835 L400 835 Z " />
<glyph glyph-name="Edieresis" unicode="&#xcb;" horiz-adv-x="550" d="M458 6 L458 29 C458 33 455 35 452 35 L151 35 L151 354 L428 354 C431 354 434 356 434 359 L434 383 C434 386 431 389 428 389 L151 389 L151 707 L452 707 C455 707 458 710 458 713 L458 737 C458 740 455 742 452 742 L122 742 C119 742 116 740 116 737 L116 6 C116 3 119 0 122 0 L452 0 C455 0 458 3 458 6 L458 6 Z M399 854 L399 925 C399 928 396 931 393 931 L334 931 C331 931 328 928 328 925 L328 854 C328 851 331 849 334 849 L393 849 C396 849 399 851 399 854 L399 854 Z M222 854 L222 925 C222 928 219 931 216 931 L157 931 C154 931 151 928 151 925 L151 854 C151 851 154 849 157 849 L216 849 C219 849 222 851 222 854 L222 854 Z " />
<glyph glyph-name="Igrave" unicode="&#xcc;" horiz-adv-x="550" d="M458 6 L458 29 C458 33 455 35 452 35 L293 35 L293 707 L440 707 C443 707 446 710 446 713 L446 737 C446 740 443 742 440 742 L110 742 C107 742 104 740 104 737 L104 713 C104 710 107 707 110 707 L257 707 L257 35 L98 35 C95 35 92 33 92 29 L92 6 C92 3 95 0 98 0 L452 0 C455 0 458 3 458 6 L458 6 Z M295 835 L220 929 C219 929 216 931 215 931 L169 931 C163 931 160 926 165 921 L259 827 C260 826 263 825 263 825 L291 825 C297 825 299 830 295 835 L295 835 Z " />
<glyph glyph-name="Iacute" unicode="&#xcd;" horiz-adv-x="550" d="M458 6 L458 29 C458 33 455 35 452 35 L293 35 L293 707 L440 707 C443 707 446 710 446 713 L446 737 C446 740 443 742 440 742 L110 742 C107 742 104 740 104 737 L104 713 C104 710 107 707 110 707 L257 707 L257 35 L98 35 C95 35 92 33 92 29 L92 6 C92 3 95 0 98 0 L452 0 C455 0 458 3 458 6 L458 6 Z M385 921 C390 926 387 931 381 931 L335 931 C334 931 331 929 330 929 L255 835 C251 830 253 825 259 825 L287 825 C287 825 290 826 291 827 L385 921 Z " />
<glyph glyph-name="Icircumflex" unicode="&#xce;" horiz-adv-x="550" d="M458 6 L458 29 C458 33 455 35 452 35 L293 35 L293 707 L440 707 C443 707 446 710 446 713 L446 737 C446 740 443 742 440 742 L110 742 C107 742 104 740 104 737 L104 713 C104 710 107 707 110 707 L257 707 L257 35 L98 35 C95 35 92 33 92 29 L92 6 C92 3 95 0 98 0 L452 0 C455 0 458 3 458 6 L458 6 Z M388 835 L313 929 C312 929 309 931 308 931 L242 931 C241 931 238 929 237 929 L162 835 C158 830 160 825 166 825 L191 825 C192 825 195 826 195 827 L275 902 L355 827 C355 826 358 825 359 825 L384 825 C390 825 392 830 388 835 L388 835 Z " />
<glyph glyph-name="Idieresis" unicode="&#xcf;" horiz-adv-x="550" d="M458 6 L458 29 C458 33 455 35 452 35 L293 35 L293 707 L440 707 C443 707 446 710 446 713 L446 737 C446 740 443 742 440 742 L110 742 C107 742 104 740 104 737 L104 713 C104 710 107 707 110 707 L257 707 L257 35 L98 35 C95 35 92 33 92 29 L92 6 C92 3 95 0 98 0 L452 0 C455 0 458 3 458 6 L458 6 Z M399 854 L399 925 C399 928 396 931 393 931 L334 931 C331 931 328 928 328 925 L328 854 C328 851 331 849 334 849 L393 849 C396 849 399 851 399 854 L399 854 Z M222 854 L222 925 C222 928 219 931 216 931 L157 931 C154 931 151 928 151 925 L151 854 C151 851 154 849 157 849 L216 849 C219 849 222 851 222 854 L222 854 Z " />
<glyph glyph-name="Eth" unicode="&#xd0;" horiz-adv-x="550" d="M455 159 L455 583 C455 671 384 742 296 742 L119 742 C116 742 114 740 114 737 L114 389 L37 389 C34 389 31 386 31 383 L31 359 C31 356 34 354 37 354 L114 354 L114 6 C114 3 116 0 119 0 L296 0 C384 0 455 71 455 159 L455 159 Z M420 159 C420 91 365 35 296 35 L149 35 L149 354 L273 354 C276 354 279 356 279 359 L279 383 C279 386 276 389 273 389 L149 389 L149 707 L296 707 C365 707 420 652 420 583 L420 159 Z " />
<glyph glyph-name="Ntilde" unicode="&#xd1;" horiz-adv-x="550" d="M446 6 L446 737 C446 740 443 742 440 742 L416 742 C413 742 411 740 411 737 L411 53 L159 739 C159 740 155 742 154 742 L110 742 C107 742 104 740 104 737 L104 6 C104 3 107 0 110 0 L134 0 C137 0 139 3 139 6 L139 690 L391 4 C391 2 395 0 396 0 L440 0 C443 0 446 3 446 6 L446 6 Z M410 883 C411 887 408 890 404 890 L381 890 C378 890 375 887 375 885 C372 858 345 829 285 869 C208 920 144 887 140 825 C139 822 142 819 146 819 L169 819 C172 819 175 822 175 824 C178 851 205 880 265 840 C342 789 406 822 410 883 L410 883 Z " />
<glyph glyph-name="Ograve" unicode="&#xd2;" horiz-adv-x="550" d="M452 147 L452 595 C452 683 381 754 293 754 L257 754 C169 754 98 683 98 595 L98 147 C98 59 169 -12 257 -12 L293 -12 C381 -12 452 59 452 147 L452 147 Z M416 147 C416 79 361 24 293 24 L257 24 C189 24 134 79 134 147 L134 595 C134 663 189 719 257 719 L293 719 C361 719 416 663 416 595 L416 147 Z M295 835 L220 929 C219 929 216 931 215 931 L169 931 C163 931 160 926 165 921 L259 827 C260 826 263 825 263 825 L291 825 C297 825 299 830 295 835 L295 835 Z " />
<glyph glyph-name="Oacute" unicode="&#xd3;" horiz-adv-x="550" d="M452 147 L452 595 C452 683 381 754 293 754 L257 754 C169 754 98 683 98 595 L98 147 C98 59 169 -12 257 -12 L293 -12 C381 -12 452 59 452 147 L452 147 Z M416 147 C416 79 361 24 293 24 L257 24 C189 24 134 79 134 147 L134 595 C134 663 189 719 257 719 L293 719 C361 719 416 663 416 595 L416 147 Z M385 921 C390 926 387 931 381 931 L335 931 C334 931 331 929 330 929 L255 835 C251 830 253 825 259 825 L287 825 C287 825 290 826 291 827 L385 921 Z " />
<glyph glyph-name="Ocircumflex" unicode="&#xd4;" horiz-adv-x="550" d="M452 147 L452 595 C452 683 381 754 293 754 L257 754 C169 754 98 683 98 595 L98 147 C98 59 169 -12 257 -12 L293 -12 C381 -12 452 59 452 147 L452 147 Z M416 147 C416 79 361 24 293 24 L257 24 C189 24 134 79 134 147 L134 595 C134 663 189 719 257 719 L293 719 C361 719 416 663 416 595 L416 147 Z M388 835 L313 929 C312 929 309 931 308 931 L242 931 C241 931 238 929 237 929 L162 835 C158 830 160 825 166 825 L191 825 C192 825 195 826 195 827 L275 902 L355 827 C355 826 358 825 359 825 L384 825 C390 825 392 830 388 835 L388 835 Z " />
<glyph glyph-name="Otilde" unicode="&#xd5;" horiz-adv-x="550" d="M452 147 L452 595 C452 683 381 754 293 754 L257 754 C169 754 98 683 98 595 L98 147 C98 59 169 -12 257 -12 L293 -12 C381 -12 452 59 452 147 L452 147 Z M416 147 C416 79 361 24 293 24 L257 24 C189 24 134 79 134 147 L134 595 C134 663 189 719 257 719 L293 719 C361 719 416 663 416 595 L416 147 Z M410 883 C411 887 408 890 404 890 L381 890 C378 890 375 887 375 885 C372 858 345 829 285 869 C208 920 144 887 140 825 C139 822 142 819 146 819 L169 819 C172 819 175 822 175 824 C178 851 205 880 265 840 C342 789 406 822 410 883 L410 883 Z " />
<glyph glyph-name="Odieresis" unicode="&#xd6;" horiz-adv-x="550" d="M452 147 L452 595 C452 683 381 754 293 754 L257 754 C169 754 98 683 98 595 L98 147 C98 59 169 -12 257 -12 L293 -12 C381 -12 452 59 452 147 L452 147 Z M416 147 C416 79 361 24 293 24 L257 24 C189 24 134 79 134 147 L134 595 C134 663 189 719 257 719 L293 719 C361 719 416 663 416 595 L416 147 Z M399 854 L399 925 C399 928 396 931 393 931 L334 931 C331 931 328 928 328 925 L328 854 C328 851 331 849 334 849 L393 849 C396 849 399 851 399 854 L399 854 Z M222 854 L222 925 C222 928 219 931 216 931 L157 931 C154 931 151 928 151 925 L151 854 C151 851 154 849 157 849 L216 849 C219 849 222 851 222 854 L222 854 Z " />
<glyph glyph-name="multiply" unicode="&#xd7;" horiz-adv-x="550" d="M404 153 C406 155 406 159 404 161 L300 265 L404 369 C406 372 406 375 404 378 L388 394 C385 397 381 397 379 394 L275 290 L171 394 C169 397 165 397 162 394 L146 378 C144 375 144 372 146 369 L250 265 L146 161 C144 159 144 155 146 153 L162 136 C165 134 169 134 171 136 L275 240 L379 136 C381 134 385 134 388 136 L404 153 Z " />
<glyph glyph-name="Oslash" unicode="&#xd8;" horiz-adv-x="550" d="M452 147 L452 595 C452 635 437 671 413 699 L437 764 C438 767 436 770 433 771 L411 780 C408 781 405 779 404 776 L385 725 C359 743 327 754 293 754 L257 754 C169 754 98 683 98 595 L98 147 C98 108 113 71 137 43 L113 -21 C112 -24 114 -28 117 -29 L139 -37 C142 -38 145 -36 146 -33 L165 18 C191 -1 223 -12 257 -12 L293 -12 C381 -12 452 59 452 147 L452 147 Z M372 690 L151 83 C140 102 134 124 134 147 L134 595 C134 664 189 719 257 719 L293 719 C323 719 351 708 372 690 L372 690 Z M416 147 C416 79 361 24 293 24 L257 24 C227 24 199 34 178 53 L399 659 C410 640 416 619 416 595 L416 147 Z " />
<glyph glyph-name="Ugrave" unicode="&#xd9;" horiz-adv-x="550" d="M446 147 L446 737 C446 740 443 742 440 742 L416 742 C413 742 411 740 411 737 L411 147 C411 79 355 24 287 24 L263 24 C195 24 139 79 139 147 L139 737 C139 740 137 742 134 742 L110 742 C107 742 104 740 104 737 L104 147 C104 59 175 -12 263 -12 L287 -12 C375 -12 446 59 446 147 L446 147 Z M295 835 L220 929 C219 929 216 931 215 931 L169 931 C163 931 160 926 165 921 L259 827 C260 826 263 825 263 825 L291 825 C297 825 299 830 295 835 L295 835 Z " />
<glyph glyph-name="Uacute" unicode="&#xda;" horiz-adv-x="550" d="M446 147 L446 737 C446 740 443 742 440 742 L416 742 C413 742 411 740 411 737 L411 147 C411 79 355 24 287 24 L263 24 C195 24 139 79 139 147 L139 737 C139 740 137 742 134 742 L110 742 C107 742 104 740 104 737 L104 147 C104 59 175 -12 263 -12 L287 -12 C375 -12 446 59 446 147 L446 147 Z M385 921 C390 926 387 931 381 931 L335 931 C334 931 331 929 330 929 L255 835 C251 830 253 825 259 825 L287 825 C287 825 290 826 291 827 L385 921 Z " />
<glyph glyph-name="Ucircumflex" unicode="&#xdb;" horiz-adv-x="550" d="M446 147 L446 737 C446 740 443 742 440 742 L416 742 C413 742 411 740 411 737 L411 147 C411 79 355 24 287 24 L263 24 C195 24 139 79 139 147 L139 737 C139 740 137 742 134 742 L110 742 C107 742 104 740 104 737 L104 147 C104 59 175 -12 263 -12 L287 -12 C375 -12 446 59 446 147 L446 147 Z M388 835 L313 929 C312 929 309 931 308 931 L242 931 C241 931 238 929 237 929 L162 835 C158 830 160 825 166 825 L191 825 C192 825 195 826 195 827 L275 902 L355 827 C355 826 358 825 359 825 L384 825 C390 825 392 830 388 835 L388 835 Z " />
<glyph glyph-name="Udieresis" unicode="&#xdc;" horiz-adv-x="550" d="M446 147 L446 737 C446 740 443 742 440 742 L416 742 C413 742 411 740 411 737 L411 147 C411 79 355 24 287 24 L263 24 C195 24 139 79 139 147 L139 737 C139 740 137 742 134 742 L110 742 C107 742 104 740 104 737 L104 147 C104 59 175 -12 263 -12 L287 -12 C375 -12 446 59 446 147 L446 147 Z M399 854 L399 925 C399 928 396 931 393 931 L334 931 C331 931 328 928 328 925 L328 854 C328 851 331 849 334 849 L393 849 C396 849 399 851 399 854 L399 854 Z M222 854 L222 925 C222 928 219 931 216 931 L157 931 C154 931 151 928 151 925 L151 854 C151 851 154 849 157 849 L216 849 C219 849 222 851 222 854 L222 854 Z " />
<glyph glyph-name="Yacute" unicode="&#xdd;" horiz-adv-x="550" d="M453 734 C454 739 452 742 447 742 L422 742 C420 742 417 740 416 739 L275 379 L134 739 C133 740 130 742 128 742 L103 742 C98 742 96 739 97 734 L257 326 L257 6 C257 3 260 0 263 0 L287 0 C290 0 293 3 293 6 L293 326 L453 734 Z M385 921 C390 925 387 931 381 931 L335 931 C334 931 331 929 330 929 L255 834 C251 830 253 825 259 825 L287 825 C287 825 290 826 291 827 L385 921 Z " />
<glyph glyph-name="Thorn" unicode="&#xde;" horiz-adv-x="550" d="M455 312 L455 430 C455 518 384 589 296 589 L273 589 C223 589 178 566 149 530 L149 737 C149 740 146 742 143 742 L119 742 C116 742 114 740 114 737 L114 6 C114 3 116 0 119 0 L143 0 C146 0 149 3 149 6 L149 212 C178 176 223 153 273 153 L296 153 C384 153 455 224 455 312 L455 312 Z M420 312 C420 244 365 189 296 189 L273 189 C204 189 149 244 149 312 L149 430 C149 499 204 554 273 554 L296 554 C365 554 420 499 420 430 L420 312 Z " />
<glyph glyph-name="germandbls" unicode="&#xdf;" horiz-adv-x="550" d="M467 159 L467 230 C467 294 429 349 375 374 C423 402 455 453 455 513 L455 595 C455 683 384 754 296 754 L273 754 C185 754 114 683 114 595 L114 6 C114 3 116 0 119 0 L143 0 C146 0 149 3 149 6 L149 595 C149 664 204 719 273 719 L296 719 C365 719 420 664 420 595 L420 513 C420 444 365 389 296 389 L261 389 C258 389 255 386 255 383 L255 359 C255 356 258 354 261 354 L308 354 C376 354 432 298 432 230 L432 159 C432 91 376 35 308 35 L237 35 C234 35 231 33 231 29 L231 6 C231 3 234 0 237 0 L308 0 C396 0 467 71 467 159 L467 159 Z " />
<glyph glyph-name="agrave" unicode="&#xe0;" horiz-adv-x="550" d="M505 6 L505 29 C505 33 502 35 499 35 L475 35 C459 35 446 49 446 65 L446 147 L446 371 C446 461 373 519 287 519 L275 519 C187 519 116 447 116 359 L116 336 C116 333 119 330 122 330 L145 330 C148 330 151 333 151 336 L151 359 C151 428 207 483 275 483 L287 483 C357 483 411 438 411 371 C411 254 104 321 104 136 L104 112 C104 42 160 -12 240 -12 L263 -12 C316 -12 375 15 411 58 C414 25 442 0 475 0 L499 0 C502 0 505 3 505 6 L505 6 Z M411 147 C411 82 335 24 263 24 L240 24 C177 24 139 64 139 112 L139 136 C139 256 330 236 411 299 L411 147 Z M307 599 L232 693 C231 694 228 695 227 695 L181 695 C174 695 172 690 177 685 L271 591 L275 589 L302 589 C308 589 311 594 307 599 L307 599 Z " />
<glyph glyph-name="aacute" unicode="&#xe1;" horiz-adv-x="550" d="M505 6 L505 29 C505 33 502 35 499 35 L475 35 C459 35 446 49 446 65 L446 147 L446 371 C446 461 373 519 287 519 L275 519 C187 519 116 447 116 359 L116 336 C116 333 119 330 122 330 L145 330 C148 330 151 333 151 336 L151 359 C151 428 207 483 275 483 L287 483 C357 483 411 438 411 371 C411 254 104 321 104 136 L104 112 C104 42 160 -12 240 -12 L263 -12 C316 -12 375 15 411 58 C414 25 442 0 475 0 L499 0 C502 0 505 3 505 6 L505 6 Z M411 147 C411 82 335 24 263 24 L240 24 C177 24 139 64 139 112 L139 136 C139 256 330 236 411 299 L411 147 Z M373 685 C378 690 376 695 369 695 L323 695 C322 695 319 694 318 693 L243 599 C239 594 242 589 248 589 L275 589 L279 591 L373 685 Z " />
<glyph glyph-name="acircumflex" unicode="&#xe2;" horiz-adv-x="550" d="M505 6 L505 29 C505 33 502 35 499 35 L475 35 C459 35 446 49 446 65 L446 147 L446 371 C446 461 373 519 287 519 L275 519 C187 519 116 447 116 359 L116 336 C116 333 119 330 122 330 L145 330 C148 330 151 333 151 336 L151 359 C151 428 207 483 275 483 L287 483 C357 483 411 438 411 371 C411 254 104 321 104 136 L104 112 C104 42 160 -12 240 -12 L263 -12 C316 -12 375 15 411 58 C414 25 442 0 475 0 L499 0 C502 0 505 3 505 6 L505 6 Z M411 147 C411 82 335 24 263 24 L240 24 C177 24 139 64 139 112 L139 136 C139 256 330 236 411 299 L411 147 Z M400 599 L325 693 C324 694 321 695 320 695 L254 695 C253 695 249 694 249 693 L174 599 C170 594 172 589 178 589 L203 589 C204 589 207 591 207 591 L287 666 L366 591 C367 591 370 589 371 589 L395 589 C402 589 404 594 400 599 L400 599 Z " />
<glyph glyph-name="atilde" unicode="&#xe3;" horiz-adv-x="550" d="M505 6 L505 29 C505 33 502 35 499 35 L475 35 C459 35 446 49 446 65 L446 147 L446 371 C446 461 373 519 287 519 L275 519 C187 519 116 447 116 359 L116 336 C116 333 119 330 122 330 L145 330 C148 330 151 333 151 336 L151 359 C151 428 207 483 275 483 L287 483 C357 483 411 438 411 371 C411 254 104 321 104 136 L104 112 C104 42 160 -12 240 -12 L263 -12 C316 -12 375 15 411 58 C414 25 442 0 475 0 L499 0 C502 0 505 3 505 6 L505 6 Z M411 147 C411 82 335 24 263 24 L240 24 C177 24 139 64 139 112 L139 136 C139 256 330 236 411 299 L411 147 Z M422 648 C422 651 420 654 416 654 L393 654 C390 654 387 652 387 649 C384 623 356 594 297 633 C220 684 156 651 151 590 C151 586 154 583 157 583 L181 583 C184 583 187 586 187 589 C190 615 217 644 277 604 C354 553 418 587 422 648 L422 648 Z " />
<glyph glyph-name="adieresis" unicode="&#xe4;" horiz-adv-x="550" d="M505 6 L505 29 C505 33 502 35 499 35 L475 35 C459 35 446 49 446 65 L446 147 L446 371 C446 461 373 519 287 519 L275 519 C187 519 116 447 116 359 L116 336 C116 333 119 330 122 330 L145 330 C148 330 151 333 151 336 L151 359 C151 428 207 483 275 483 L287 483 C357 483 411 438 411 371 C411 254 104 321 104 136 L104 112 C104 42 160 -12 240 -12 L263 -12 C316 -12 375 15 411 58 C414 25 442 0 475 0 L499 0 C502 0 505 3 505 6 L505 6 Z M411 147 C411 82 335 24 263 24 L240 24 C177 24 139 64 139 112 L139 136 C139 256 330 236 411 299 L411 147 Z M403 619 L403 689 C403 693 401 695 398 695 L339 695 C336 695 333 693 333 689 L333 619 C333 616 336 613 339 613 L398 613 C401 613 403 616 403 619 L403 619 Z M227 619 L227 689 C227 693 224 695 221 695 L162 695 C159 695 156 693 156 689 L156 619 C156 616 159 613 162 613 L221 613 C224 613 227 616 227 619 L227 619 Z " />
<glyph glyph-name="aring" unicode="&#xe5;" horiz-adv-x="550" d="M505 6 L505 29 C505 33 502 35 499 35 L475 35 C459 35 446 49 446 65 L446 147 L446 371 C446 461 373 519 287 519 L275 519 C187 519 116 447 116 359 L116 336 C116 333 119 330 122 330 L145 330 C148 330 151 333 151 336 L151 359 C151 428 207 483 275 483 L287 483 C357 483 411 438 411 371 C411 254 104 321 104 136 L104 112 C104 42 160 -12 240 -12 L263 -12 C316 -12 375 15 411 58 C414 25 442 0 475 0 L499 0 C502 0 505 3 505 6 L505 6 Z M411 147 C411 82 335 24 263 24 L240 24 C177 24 139 64 139 112 L139 136 C139 256 330 236 411 299 L411 147 Z M369 654 C369 700 332 737 287 737 C241 737 204 700 204 654 C204 609 241 572 287 572 C332 572 369 609 369 654 L369 654 Z M334 654 C334 628 313 607 287 607 C261 607 240 628 240 654 C240 680 261 701 287 701 C313 701 334 680 334 654 L334 654 Z " />
<glyph glyph-name="ae" unicode="&#xe6;" horiz-adv-x="550" d="M505 112 L505 124 C505 127 502 130 499 130 L475 130 C472 130 469 127 469 124 L469 112 C469 63 430 24 381 24 C332 24 293 63 293 112 L293 236 L499 236 C502 236 505 238 505 242 L505 395 C505 463 449 519 381 519 C336 519 297 495 275 459 C253 495 214 519 169 519 C101 519 45 463 45 395 L45 364 C45 361 48 358 51 358 L75 358 C78 358 81 361 81 364 L81 395 C81 444 120 483 169 483 C218 483 257 444 257 395 L257 348 C257 316 194 281 163 270 C101 249 45 217 45 136 L45 112 C45 18 90 -12 169 -12 C214 -12 253 12 275 48 C297 12 336 -12 381 -12 C449 -12 505 44 505 112 L505 112 Z M469 271 L293 271 L293 395 C293 444 332 483 381 483 C430 483 469 444 469 395 L469 271 Z M257 284 L257 112 C257 63 218 24 169 24 C106 24 81 41 81 112 L81 136 C81 197 123 219 175 237 C198 245 232 262 257 284 L257 284 Z " />
<glyph glyph-name="ccedilla" unicode="&#xe7;" horiz-adv-x="550" d="M445 136 L445 147 C445 150 443 153 439 153 L416 153 C413 153 410 150 410 147 L410 136 C404 73 351 24 287 24 L263 24 C195 24 139 79 139 147 L139 359 C139 428 195 483 263 483 L287 483 C351 483 404 434 410 371 L410 364 C410 361 413 358 416 358 L439 358 C443 358 445 361 445 364 L445 371 C445 454 370 519 287 519 L263 519 C175 519 104 447 104 359 L104 147 C104 61 172 -9 257 -12 L224 -110 C223 -114 225 -118 230 -118 L255 -118 C257 -118 260 -116 260 -114 L295 -12 C375 -8 445 55 445 136 L445 136 Z " />
<glyph glyph-name="egrave" unicode="&#xe8;" horiz-adv-x="550" d="M446 359 C446 447 375 519 287 519 L263 519 C175 519 104 447 104 359 L104 147 C104 59 175 -12 263 -12 L287 -12 C356 -12 415 32 437 94 C438 97 436 100 433 101 L410 108 C407 109 404 107 403 104 C385 57 340 24 287 24 L263 24 C195 24 139 79 139 147 L139 236 L440 236 C443 236 446 238 446 242 L446 359 Z M411 359 L411 271 L139 271 L139 359 C139 428 195 483 263 483 L287 483 C355 483 411 428 411 359 L411 359 Z M295 599 L220 693 C219 694 216 695 215 695 L169 695 C163 695 160 690 165 685 L259 591 C260 591 263 589 263 589 L291 589 C297 589 299 594 295 599 L295 599 Z " />
<glyph glyph-name="eacute" unicode="&#xe9;" horiz-adv-x="550" d="M446 359 C446 447 375 519 287 519 L263 519 C175 519 104 447 104 359 L104 147 C104 59 175 -12 263 -12 L287 -12 C356 -12 415 32 437 94 C438 97 436 100 433 101 L410 108 C407 109 404 107 403 104 C385 57 340 24 287 24 L263 24 C195 24 139 79 139 147 L139 236 L440 236 C443 236 446 238 446 242 L446 359 Z M411 359 L411 271 L139 271 L139 359 C139 428 195 483 263 483 L287 483 C355 483 411 428 411 359 L411 359 Z M385 685 C390 690 387 695 381 695 L335 695 C334 695 331 694 330 693 L255 599 C251 594 253 589 259 589 L287 589 C287 589 290 591 291 591 L385 685 Z " />
<glyph glyph-name="ecircumflex" unicode="&#xea;" horiz-adv-x="550" d="M446 359 C446 447 375 519 287 519 L263 519 C175 519 104 447 104 359 L104 147 C104 59 175 -12 263 -12 L287 -12 C356 -12 415 32 437 94 C438 97 436 100 433 101 L410 108 C407 109 404 107 403 104 C385 57 340 24 287 24 L263 24 C195 24 139 79 139 147 L139 236 L440 236 C443 236 446 238 446 242 L446 359 Z M411 359 L411 271 L139 271 L139 359 C139 428 195 483 263 483 L287 483 C355 483 411 428 411 359 L411 359 Z M388 599 L313 693 C312 694 309 695 308 695 L242 695 C241 695 238 694 237 693 L162 599 C158 594 160 589 166 589 L191 589 C192 589 195 591 195 591 L275 666 L355 591 C355 591 358 589 359 589 L384 589 C390 589 392 594 388 599 L388 599 Z " />
<glyph glyph-name="edieresis" unicode="&#xeb;" horiz-adv-x="550" d="M446 359 C446 447 375 519 287 519 L263 519 C175 519 104 447 104 359 L104 147 C104 59 175 -12 263 -12 L287 -12 C356 -12 415 32 437 94 C438 97 436 100 433 101 L410 108 C407 109 404 107 403 104 C385 57 340 24 287 24 L263 24 C195 24 139 79 139 147 L139 236 L440 236 C443 236 446 238 446 242 L446 359 Z M411 359 L411 271 L139 271 L139 359 C139 428 195 483 263 483 L287 483 C355 483 411 428 411 359 L411 359 Z M399 619 L399 689 C399 693 396 695 393 695 L334 695 C331 695 328 693 328 689 L328 619 C328 616 331 613 334 613 L393 613 C396 613 399 616 399 619 L399 619 Z M222 619 L222 689 C222 693 219 695 216 695 L157 695 C154 695 151 693 151 689 L151 619 C151 616 154 613 157 613 L216 613 C219 613 222 616 222 619 L222 619 Z " />
<glyph glyph-name="igrave" unicode="&#xec;" horiz-adv-x="550" d="M493 6 L493 29 C493 33 490 35 487 35 L328 35 L328 501 C328 504 325 507 322 507 L134 507 C130 507 128 504 128 501 L128 477 C128 474 130 471 134 471 L293 471 L293 35 L86 35 C83 35 81 33 81 29 L81 6 C81 3 83 0 86 0 L487 0 C490 0 493 3 493 6 L493 6 Z M319 599 L243 693 C243 694 240 695 239 695 L193 695 C186 695 184 690 188 685 L283 591 C283 591 286 589 287 589 L314 589 C320 589 323 594 319 599 L319 599 Z " />
<glyph glyph-name="iacute" unicode="&#xed;" horiz-adv-x="550" d="M493 6 L493 29 C493 33 490 35 487 35 L328 35 L328 501 C328 504 325 507 322 507 L134 507 C130 507 128 504 128 501 L128 477 C128 474 130 471 134 471 L293 471 L293 35 L86 35 C83 35 81 33 81 29 L81 6 C81 3 83 0 86 0 L487 0 C490 0 493 3 493 6 L493 6 Z M385 685 C390 690 387 695 381 695 L335 695 C334 695 331 694 330 693 L255 599 C251 594 253 589 259 589 L287 589 C287 589 290 591 291 591 L385 685 Z " />
<glyph glyph-name="icircumflex" unicode="&#xee;" horiz-adv-x="550" d="M493 6 L493 29 C493 33 490 35 487 35 L328 35 L328 501 C328 504 325 507 322 507 L134 507 C130 507 128 504 128 501 L128 477 C128 474 130 471 134 471 L293 471 L293 35 L86 35 C83 35 81 33 81 29 L81 6 C81 3 83 0 86 0 L487 0 C490 0 493 3 493 6 L493 6 Z M424 599 L348 693 C348 694 344 695 344 695 L277 695 C276 695 273 694 273 693 L197 599 C193 594 196 589 202 589 L227 589 C227 589 230 591 231 591 L310 666 L390 591 L394 589 L419 589 C425 589 427 594 424 599 L424 599 Z " />
<glyph glyph-name="idieresis" unicode="&#xef;" horiz-adv-x="550" d="M493 6 L493 29 C493 33 490 35 487 35 L328 35 L328 501 C328 504 325 507 322 507 L134 507 C130 507 128 504 128 501 L128 477 C128 474 130 471 134 471 L293 471 L293 35 L86 35 C83 35 81 33 81 29 L81 6 C81 3 83 0 86 0 L487 0 C490 0 493 3 493 6 L493 6 Z M434 619 L434 689 C434 693 431 695 428 695 L369 695 C366 695 363 693 363 689 L363 619 C363 616 366 613 369 613 L428 613 C431 613 434 616 434 619 L434 619 Z M257 619 L257 689 C257 693 255 695 251 695 L192 695 C189 695 187 693 187 689 L187 619 C187 616 189 613 192 613 L251 613 C255 613 257 616 257 619 L257 619 Z " />
<glyph glyph-name="eth" unicode="&#xf0;" horiz-adv-x="550" d="M519 642 L519 666 C519 669 516 672 513 672 L436 672 L436 737 C436 740 434 742 431 742 L407 742 C404 742 401 740 401 737 L401 672 L301 672 C298 672 295 669 295 666 L295 642 C295 639 298 636 301 636 L401 636 L401 459 C372 496 327 519 277 519 L254 519 C166 519 95 447 95 359 L95 147 C95 59 166 -12 254 -12 L277 -12 C327 -12 372 11 401 47 L401 6 C401 3 404 0 407 0 L431 0 C434 0 436 3 436 6 L436 147 L436 359 L436 636 L513 636 C516 636 519 639 519 642 L519 642 Z M401 147 C401 79 346 24 277 24 L254 24 C185 24 130 79 130 147 L130 359 C130 428 185 483 254 483 L277 483 C346 483 401 428 401 359 L401 147 Z " />
<glyph glyph-name="ntilde" unicode="&#xf1;" horiz-adv-x="550" d="M451 6 L451 359 C451 447 379 519 291 519 L268 519 C218 519 173 495 144 459 L144 501 C144 504 141 507 138 507 L115 507 C112 507 109 504 109 501 L109 6 C109 3 112 0 115 0 L138 0 C141 0 144 3 144 6 L144 359 C144 428 200 483 268 483 L291 483 C360 483 415 428 415 359 L415 6 C415 3 418 0 421 0 L445 0 C448 0 451 3 451 6 L451 6 Z M415 648 C415 651 413 654 409 654 L385 654 C383 654 380 652 380 649 C377 623 349 594 290 633 C213 684 149 651 144 590 C144 586 147 583 150 583 L174 583 C177 583 180 586 180 589 C183 615 210 644 270 604 C346 553 411 587 415 648 L415 648 Z " />
<glyph glyph-name="ograve" unicode="&#xf2;" horiz-adv-x="550" d="M446 147 L446 359 C446 447 375 519 287 519 L263 519 C175 519 104 447 104 359 L104 147 C104 59 175 -12 263 -12 L287 -12 C375 -12 446 59 446 147 L446 147 Z M411 147 C411 79 355 24 287 24 L263 24 C195 24 139 79 139 147 L139 359 C139 428 195 483 263 483 L287 483 C355 483 411 428 411 359 L411 147 Z M295 599 L220 693 C219 694 216 695 215 695 L169 695 C163 695 160 690 165 685 L259 591 C260 591 263 589 263 589 L291 589 C297 589 299 594 295 599 L295 599 Z " />
<glyph glyph-name="oacute" unicode="&#xf3;" horiz-adv-x="550" d="M446 147 L446 359 C446 447 375 519 287 519 L263 519 C175 519 104 447 104 359 L104 147 C104 59 175 -12 263 -12 L287 -12 C375 -12 446 59 446 147 L446 147 Z M411 147 C411 79 355 24 287 24 L263 24 C195 24 139 79 139 147 L139 359 C139 428 195 483 263 483 L287 483 C355 483 411 428 411 359 L411 147 Z M385 685 C390 690 387 695 381 695 L335 695 C334 695 331 694 330 693 L255 599 C251 594 253 589 259 589 L287 589 C287 589 290 591 291 591 L385 685 Z " />
<glyph glyph-name="ocircumflex" unicode="&#xf4;" horiz-adv-x="550" d="M446 147 L446 359 C446 447 375 519 287 519 L263 519 C175 519 104 447 104 359 L104 147 C104 59 175 -12 263 -12 L287 -12 C375 -12 446 59 446 147 L446 147 Z M411 147 C411 79 355 24 287 24 L263 24 C195 24 139 79 139 147 L139 359 C139 428 195 483 263 483 L287 483 C355 483 411 428 411 359 L411 147 Z M388 599 L313 693 C312 694 309 695 308 695 L242 695 C241 695 238 694 237 693 L162 599 C158 594 160 589 166 589 L191 589 C192 589 195 591 195 591 L275 666 L355 591 C355 591 358 589 359 589 L384 589 C390 589 392 594 388 599 L388 599 Z " />
<glyph glyph-name="otilde" unicode="&#xf5;" horiz-adv-x="550" d="M446 147 L446 359 C446 447 375 519 287 519 L263 519 C175 519 104 447 104 359 L104 147 C104 59 175 -12 263 -12 L287 -12 C375 -12 446 59 446 147 L446 147 Z M411 147 C411 79 355 24 287 24 L263 24 C195 24 139 79 139 147 L139 359 C139 428 195 483 263 483 L287 483 C355 483 411 428 411 359 L411 147 Z M410 648 C411 651 408 654 404 654 L381 654 C378 654 375 652 375 649 C372 623 345 594 285 633 C208 684 144 651 140 590 C139 586 142 583 146 583 L169 583 C172 583 175 586 175 589 C178 615 205 644 265 604 C342 553 406 587 410 648 L410 648 Z " />
<glyph glyph-name="odieresis" unicode="&#xf6;" horiz-adv-x="550" d="M446 147 L446 359 C446 447 375 519 287 519 L263 519 C175 519 104 447 104 359 L104 147 C104 59 175 -12 263 -12 L287 -12 C375 -12 446 59 446 147 L446 147 Z M411 147 C411 79 355 24 287 24 L263 24 C195 24 139 79 139 147 L139 359 C139 428 195 483 263 483 L287 483 C355 483 411 428 411 359 L411 147 Z M399 619 L399 689 C399 693 396 695 393 695 L334 695 C331 695 328 693 328 689 L328 619 C328 616 331 613 334 613 L393 613 C396 613 399 616 399 619 L399 619 Z M222 619 L222 689 C222 693 219 695 216 695 L157 695 C154 695 151 693 151 689 L151 619 C151 616 154 613 157 613 L216 613 C219 613 222 616 222 619 L222 619 Z " />
<glyph glyph-name="divide" unicode="&#xf7;" horiz-adv-x="550" d="M316 395 L316 466 C316 469 313 471 310 471 L240 471 C237 471 234 469 234 466 L234 395 C234 392 237 389 240 389 L310 389 C313 389 316 392 316 395 L316 395 Z M422 253 L422 277 C422 280 420 283 416 283 L134 283 C130 283 128 280 128 277 L128 253 C128 250 130 247 134 247 L416 247 C420 247 422 250 422 253 L422 253 Z M316 65 L316 136 C316 139 313 141 310 141 L240 141 C237 141 234 139 234 136 L234 65 C234 62 237 59 240 59 L310 59 C313 59 316 62 316 65 L316 65 Z " />
<glyph glyph-name="oslash" unicode="&#xf8;" horiz-adv-x="550" d="M446 147 L446 359 C446 413 420 460 379 489 L404 557 C406 560 404 564 401 565 L379 573 C376 574 372 572 371 570 L348 506 C329 514 309 519 287 519 L263 519 C175 519 104 447 104 359 L104 147 C104 94 130 47 171 18 L146 -51 C144 -54 146 -57 149 -58 L171 -66 C174 -67 178 -66 179 -63 L202 1 C221 -7 241 -12 263 -12 L287 -12 C375 -12 446 59 446 147 L446 147 Z M411 147 C411 79 355 24 287 24 L263 24 C246 24 229 27 214 34 L367 454 C394 431 411 397 411 359 L411 147 Z M336 473 L183 53 C156 76 139 109 139 147 L139 359 C139 428 195 483 263 483 L287 483 C304 483 321 480 336 473 L336 473 Z " />
<glyph glyph-name="ugrave" unicode="&#xf9;" horiz-adv-x="550" d="M441 6 L441 501 C441 504 438 507 435 507 L412 507 C409 507 406 504 406 501 L406 147 C406 79 350 24 282 24 L258 24 C190 24 135 79 135 147 L135 501 C135 504 132 507 129 507 L105 507 C102 507 99 504 99 501 L99 147 C99 59 171 -12 258 -12 L282 -12 C332 -12 377 11 406 47 L406 6 C406 3 409 0 412 0 L435 0 C438 0 441 3 441 6 L441 6 Z M302 599 L227 693 C226 694 223 695 222 695 L176 695 C170 695 167 690 172 685 L266 591 C267 591 270 589 270 589 L298 589 C304 589 306 594 302 599 L302 599 Z " />
<glyph glyph-name="uacute" unicode="&#xfa;" horiz-adv-x="550" d="M441 6 L441 501 C441 504 438 507 435 507 L412 507 C409 507 406 504 406 501 L406 147 C406 79 350 24 282 24 L258 24 C190 24 135 79 135 147 L135 501 C135 504 132 507 129 507 L105 507 C102 507 99 504 99 501 L99 147 C99 59 171 -12 258 -12 L282 -12 C332 -12 377 11 406 47 L406 6 C406 3 409 0 412 0 L435 0 C438 0 441 3 441 6 L441 6 Z M369 685 C373 690 371 695 364 695 L318 695 C318 695 314 694 314 693 L238 599 C235 594 237 589 243 589 L270 589 C271 589 274 591 274 591 L369 685 Z " />
<glyph glyph-name="ucircumflex" unicode="&#xfb;" horiz-adv-x="550" d="M441 6 L441 501 C441 504 438 507 435 507 L412 507 C409 507 406 504 406 501 L406 147 C406 79 350 24 282 24 L258 24 C190 24 135 79 135 147 L135 501 C135 504 132 507 129 507 L105 507 C102 507 99 504 99 501 L99 147 C99 59 171 -12 258 -12 L282 -12 C332 -12 377 11 406 47 L406 6 C406 3 409 0 412 0 L435 0 C438 0 441 3 441 6 L441 6 Z M384 599 L308 693 C308 694 304 695 304 695 L237 695 C236 695 233 694 232 693 L157 599 C153 594 155 589 162 589 L186 589 C187 589 190 591 191 591 L270 666 L350 591 L354 589 L379 589 C385 589 387 594 384 599 L384 599 Z " />
<glyph glyph-name="udieresis" unicode="&#xfc;" horiz-adv-x="550" d="M441 6 L441 501 C441 504 438 507 435 507 L412 507 C409 507 406 504 406 501 L406 147 C406 79 350 24 282 24 L258 24 C190 24 135 79 135 147 L135 501 C135 504 132 507 129 507 L105 507 C102 507 99 504 99 501 L99 147 C99 59 171 -12 258 -12 L282 -12 C332 -12 377 11 406 47 L406 6 C406 3 409 0 412 0 L435 0 C438 0 441 3 441 6 L441 6 Z M394 619 L394 689 C394 693 391 695 388 695 L329 695 C326 695 323 693 323 689 L323 619 C323 616 326 613 329 613 L388 613 C391 613 394 616 394 619 L394 619 Z M217 619 L217 689 C217 693 214 695 211 695 L152 695 C149 695 147 693 147 689 L147 619 C147 616 149 613 152 613 L211 613 C214 613 217 616 217 619 L217 619 Z " />
<glyph glyph-name="yacute" unicode="&#xfd;" horiz-adv-x="550" d="M443 499 C444 503 442 507 437 507 L415 507 C413 507 410 504 409 502 L285 59 L151 503 C151 504 148 507 146 507 L121 507 C117 507 114 503 115 499 L267 -2 C256 -38 250 -61 243 -79 C216 -153 173 -153 98 -153 L86 -153 C83 -153 81 -156 81 -159 L81 -183 C81 -186 83 -189 86 -189 L98 -189 C186 -189 251 -180 280 -82 C310 18 420 417 443 499 L443 499 Z M385 685 C390 690 387 695 381 695 L335 695 C334 695 331 694 330 693 L255 599 C251 594 253 589 259 589 L287 589 C287 589 290 591 291 591 L385 685 Z " />
<glyph glyph-name="thorn" unicode="&#xfe;" horiz-adv-x="550" d="M455 147 L455 359 C455 447 384 519 296 519 L273 519 C223 519 178 496 149 459 L149 737 C149 740 146 742 143 742 L119 742 C116 742 114 740 114 737 L114 -230 C114 -233 116 -236 119 -236 L143 -236 C146 -236 149 -233 149 -230 L149 47 C178 11 223 -12 273 -12 L296 -12 C384 -12 455 59 455 147 L455 147 Z M420 147 C420 79 365 24 296 24 L273 24 C204 24 149 79 149 147 L149 359 C149 428 204 483 273 483 L296 483 C365 483 420 428 420 359 L420 147 Z " />
<glyph glyph-name="ydieresis" unicode="&#xff;" horiz-adv-x="550" d="M443 499 C444 503 442 507 437 507 L415 507 C413 507 410 504 409 502 L285 59 L151 503 C151 504 148 507 146 507 L121 507 C117 507 114 503 115 499 L267 -2 C256 -38 250 -61 243 -79 C216 -153 173 -153 98 -153 L86 -153 C83 -153 81 -156 81 -159 L81 -183 C81 -186 83 -189 86 -189 L98 -189 C186 -189 251 -180 280 -82 C310 18 420 417 443 499 L443 499 Z M411 595 L411 666 C411 669 408 672 405 672 L346 672 C343 672 340 669 340 666 L340 595 C340 592 343 589 346 589 L405 589 C408 589 411 592 411 595 L411 595 Z M234 595 L234 666 C234 669 231 672 228 672 L169 672 C166 672 163 669 163 666 L163 595 C163 592 166 589 169 589 L228 589 C231 589 234 592 234 595 L234 595 Z " />
<glyph glyph-name="dotlessi" unicode="&#x131;" horiz-adv-x="550" d="M293 6 L293 430 C293 433 290 436 287 436 L263 436 C260 436 257 433 257 430 L257 6 C257 3 260 0 263 0 L287 0 C290 0 293 3 293 6 L293 6 Z " />
<glyph glyph-name="Lslash" unicode="&#x141;" horiz-adv-x="550" d="M469 6 L469 29 C469 33 467 35 464 35 L187 35 L187 342 L333 427 C335 428 336 432 335 435 L323 455 C322 458 318 459 315 457 L187 383 L187 737 C187 740 184 742 181 742 L157 742 C154 742 151 740 151 737 L151 363 L70 316 C67 314 66 311 68 308 L80 287 C81 285 85 284 88 285 L151 322 L151 6 C151 3 154 0 157 0 L464 0 C467 0 469 3 469 6 L469 6 Z " />
<glyph glyph-name="lslash" unicode="&#x142;" horiz-adv-x="550" d="M458 6 L458 29 C458 33 455 35 452 35 L304 35 L304 356 L427 427 C430 428 431 432 429 435 L417 455 C416 458 412 459 409 457 L304 397 L304 737 C304 740 302 742 299 742 L134 742 C130 742 128 740 128 737 L128 713 C128 710 130 707 134 707 L269 707 L269 376 L164 316 C162 314 161 311 162 308 L174 287 C176 285 179 284 182 285 L269 335 L269 35 L86 35 C83 35 81 33 81 29 L81 6 C81 3 83 0 86 0 L452 0 C455 0 458 3 458 6 L458 6 Z " />
<glyph glyph-name="OE" unicode="&#x152;" horiz-adv-x="550" d="M481 6 L481 29 C481 33 478 35 475 35 L316 35 L316 354 L452 354 C455 354 458 356 458 359 L458 383 C458 386 455 389 452 389 L316 389 L316 707 L475 707 C478 707 481 710 481 713 L481 737 C481 740 478 742 475 742 L287 742 C284 742 281 740 281 737 L281 717 C258 740 227 754 193 754 C124 754 69 699 69 631 L69 112 C69 44 124 -12 193 -12 C227 -12 258 2 281 25 L281 6 C281 3 284 0 287 0 L475 0 C478 0 481 3 481 6 L481 6 Z M281 112 C281 63 241 24 193 24 C144 24 104 63 104 112 L104 631 C104 679 144 719 193 719 C241 719 281 679 281 631 L281 112 Z " />
<glyph glyph-name="oe" unicode="&#x153;" horiz-adv-x="550" d="M505 112 L505 124 C505 127 502 130 499 130 L475 130 C472 130 469 127 469 124 L469 112 C469 63 430 24 381 24 C332 24 293 63 293 112 L293 236 L499 236 C502 236 505 238 505 242 L505 395 C505 463 449 519 381 519 C336 519 297 495 275 459 C253 495 214 519 169 519 C101 519 45 463 45 395 L45 112 C45 44 101 -12 169 -12 C214 -12 253 12 275 48 C297 12 336 -12 381 -12 C449 -12 505 44 505 112 L505 112 Z M469 271 L293 271 L293 395 C293 444 332 483 381 483 C430 483 469 444 469 395 L469 271 Z M257 112 C257 63 218 24 169 24 C120 24 81 63 81 112 L81 395 C81 444 120 483 169 483 C218 483 257 444 257 395 L257 112 Z " />
<glyph glyph-name="Scaron" unicode="&#x160;" horiz-adv-x="550" d="M458 147 L458 183 C458 282 397 331 320 373 C245 415 139 456 139 560 L139 595 C139 663 195 719 263 719 L287 719 C355 719 411 663 411 595 L411 583 C411 580 413 577 416 577 L440 577 C443 577 446 580 446 583 L446 595 C446 683 375 754 287 754 L263 754 C175 754 104 683 104 595 L104 560 C104 345 422 381 422 183 L422 147 C422 79 367 24 299 24 L251 24 C183 24 128 79 128 147 L128 159 C128 162 125 165 122 165 L98 165 C95 165 92 162 92 159 L92 147 C92 59 164 -12 251 -12 L299 -12 C386 -12 458 59 458 147 L458 147 Z M388 919 C392 924 390 928 384 928 L359 928 C358 928 355 927 355 927 L275 852 L195 927 C195 927 192 928 191 928 L166 928 C160 928 158 924 162 919 L237 825 C238 824 241 822 242 822 L308 822 C309 822 312 824 313 825 L388 919 Z " />
<glyph glyph-name="scaron" unicode="&#x161;" horiz-adv-x="550" d="M458 136 C458 308 151 239 151 376 C151 442 205 483 275 483 L287 483 C357 483 411 437 411 371 C411 368 413 365 416 365 L440 365 C443 365 446 368 446 371 C446 461 373 519 287 519 L275 519 C189 519 116 465 116 376 C116 203 422 273 422 136 C422 69 369 24 299 24 L263 24 C193 24 139 69 139 136 L139 147 C139 150 137 153 134 153 L110 153 C107 153 104 150 104 147 L104 136 C104 46 177 -12 263 -12 L299 -12 C384 -12 458 46 458 136 L458 136 Z M388 686 C392 691 390 695 384 695 L359 695 C358 695 355 694 355 694 L275 618 L195 694 C195 694 192 695 191 695 L166 695 C160 695 158 691 162 686 L237 591 C238 591 241 589 242 589 L308 589 C309 589 312 591 313 591 L388 686 Z " />
<glyph glyph-name="Ydieresis" unicode="&#x178;" horiz-adv-x="550" d="M453 734 C454 739 452 742 447 742 L422 742 C420 742 417 740 416 739 L275 379 L134 739 C133 740 130 742 128 742 L103 742 C98 742 96 739 97 734 L257 326 L257 6 C257 3 260 0 263 0 L287 0 C290 0 293 3 293 6 L293 326 L453 734 Z M399 853 L399 923 C399 926 396 929 393 929 L334 929 C331 929 328 926 328 923 L328 853 C328 849 331 847 334 847 L393 847 C396 847 399 849 399 853 L399 853 Z M222 853 L222 923 C222 926 219 929 216 929 L157 929 C154 929 151 926 151 923 L151 853 C151 849 154 847 157 847 L216 847 C219 847 222 849 222 853 L222 853 Z " />
<glyph glyph-name="Zcaron" unicode="&#x17d;" horiz-adv-x="550" d="M458 6 L458 29 C458 33 455 35 452 35 L138 35 L441 685 C445 693 446 700 446 701 L446 737 C446 740 443 742 440 742 L122 742 C119 742 116 740 116 737 L116 713 C116 710 119 707 122 707 L411 707 L110 57 C105 47 104 47 104 36 L104 6 C104 3 107 0 110 0 L452 0 C455 0 458 3 458 6 L458 6 Z M388 919 C392 924 390 928 384 928 L359 928 C358 928 355 927 355 927 L275 852 L195 927 C195 927 192 928 191 928 L166 928 C160 928 158 924 162 919 L237 825 C238 824 241 822 242 822 L308 822 C309 822 312 824 313 825 L388 919 Z " />
<glyph glyph-name="zcaron" unicode="&#x17e;" horiz-adv-x="550" d="M458 6 L458 29 C458 33 455 35 452 35 L139 35 L445 458 C445 459 446 461 446 462 L446 501 C446 504 443 507 440 507 L122 507 C119 507 116 504 116 501 L116 477 C116 474 119 471 122 471 L416 471 L105 48 L104 45 L104 6 C104 3 107 0 110 0 L452 0 C455 0 458 3 458 6 L458 6 Z M388 686 C392 691 390 695 384 695 L359 695 C358 695 355 694 355 694 L275 618 L195 694 C195 694 192 695 191 695 L166 695 C160 695 158 691 162 686 L237 591 C238 591 241 589 242 589 L308 589 C309 589 312 591 313 591 L388 686 Z " />
<glyph glyph-name="florin" unicode="&#x192;" horiz-adv-x="550" d="M505 560 L505 595 C505 681 447 754 358 754 L334 754 C244 754 187 681 187 595 L187 483 L98 483 C95 483 92 480 92 477 L92 454 C92 451 95 448 98 448 L187 448 L187 -136 C187 -171 172 -200 122 -200 L110 -200 C106 -200 104 -203 104 -206 L104 -230 C104 -233 106 -236 110 -236 L122 -236 C184 -236 222 -191 222 -136 L222 448 L358 448 C361 448 363 451 363 454 L363 477 C363 480 361 483 358 483 L222 483 L222 595 C222 666 268 719 334 719 L358 719 C424 719 469 666 469 595 L469 560 C469 557 472 554 475 554 L499 554 C502 554 505 557 505 560 L505 560 Z " />
<glyph glyph-name="circumflex" unicode="&#x2c6;" horiz-adv-x="550" d="M388 599 L313 693 C312 694 309 695 308 695 L242 695 C241 695 238 694 237 693 L162 599 C158 594 160 589 166 589 L191 589 C192 589 195 591 195 591 L275 666 L355 591 C355 591 358 589 359 589 L384 589 C390 589 392 594 388 599 L388 599 Z " />
<glyph glyph-name="caron" unicode="&#x2c7;" horiz-adv-x="550" d="M388 686 C392 691 390 695 384 695 L359 695 C358 695 355 694 355 694 L275 618 L195 694 C195 694 192 695 191 695 L166 695 C160 695 158 691 162 686 L237 591 C238 591 241 589 242 589 L308 589 C309 589 312 591 313 591 L388 686 Z " />
<glyph glyph-name="breve" unicode="&#x2d8;" horiz-adv-x="550" d="M387 701 C387 704 384 707 381 707 L357 707 C354 707 352 704 352 701 C352 659 317 625 275 625 C233 625 198 659 198 701 C198 704 196 707 193 707 L169 707 C166 707 163 704 163 701 C163 639 213 589 275 589 C337 589 387 639 387 701 L387 701 Z " />
<glyph glyph-name="dotaccent" unicode="&#x2d9;" horiz-adv-x="550" d="M316 619 L316 689 C316 693 313 695 310 695 L240 695 C237 695 234 693 234 689 L234 619 C234 616 237 613 240 613 L310 613 C313 613 316 616 316 619 L316 619 Z " />
<glyph glyph-name="ring" unicode="&#x2da;" horiz-adv-x="550" d="M369 654 C369 700 332 737 287 737 C241 737 204 700 204 654 C204 609 241 572 287 572 C332 572 369 609 369 654 L369 654 Z M334 654 C334 628 313 607 287 607 C261 607 240 628 240 654 C240 680 261 701 287 701 C313 701 334 680 334 654 L334 654 Z " />
<glyph glyph-name="ogonek" unicode="&#x2db;" horiz-adv-x="550" d="M307 -110 L269 6 L232 6 L271 -114 C272 -116 275 -118 277 -118 L302 -118 C306 -118 309 -114 307 -110 L307 -110 Z " />
<glyph glyph-name="tilde" unicode="&#x2dc;" horiz-adv-x="550" d="M410 648 C411 651 408 654 404 654 L381 654 C378 654 375 652 375 649 C372 623 345 594 285 633 C208 685 144 651 140 590 C139 586 142 583 146 583 L169 583 C172 583 175 586 175 589 C178 615 205 644 265 604 C342 553 406 587 410 648 L410 648 Z " />
<glyph glyph-name="hungarumlaut" unicode="&#x2dd;" horiz-adv-x="550" d="M410 685 C415 690 413 695 406 695 L360 695 C359 695 356 694 356 693 L280 599 C276 594 279 589 285 589 L312 589 L316 591 L410 685 Z M264 685 C269 690 267 695 260 695 L214 695 C213 695 210 694 209 693 L134 599 C130 594 132 589 139 589 L166 589 C166 589 169 591 170 591 L264 685 Z " />
<glyph glyph-name="pi" unicode="&#x3c0;" horiz-adv-x="550" d="M469 6 L469 29 C469 33 467 35 464 35 L399 35 L399 471 L464 471 C467 471 469 474 469 477 L469 501 C469 504 467 507 464 507 L86 507 C83 507 81 504 81 501 L81 477 C81 474 83 471 86 471 L163 471 L163 6 C163 3 166 0 169 0 L193 0 C196 0 198 3 198 6 L198 471 L363 471 L363 6 C363 3 366 0 369 0 L464 0 C467 0 469 3 469 6 L469 6 Z " />
<glyph glyph-name="endash" unicode="&#x2013;" horiz-adv-x="550" d="M399 253 L399 277 C399 280 396 283 393 283 L157 283 C154 283 151 280 151 277 L151 253 C151 250 154 247 157 247 L393 247 C396 247 399 250 399 253 L399 253 Z " />
<glyph glyph-name="emdash" unicode="&#x2014;" horiz-adv-x="550" d="M494 253 L494 277 C494 280 492 283 489 283 L61 283 C58 283 56 280 56 277 L56 253 C56 250 58 247 61 247 L489 247 C492 247 494 250 494 253 L494 253 Z " />
<glyph glyph-name="quoteleft" unicode="&#x2018;" horiz-adv-x="550" d="M328 512 L328 607 C328 610 325 613 322 613 L257 613 L257 642 C257 678 286 707 322 707 C325 707 328 710 328 713 L328 736 C328 740 325 742 322 742 C267 742 222 697 222 642 L222 512 C222 509 225 507 228 507 L322 507 C325 507 328 509 328 512 L328 512 Z " />
<glyph glyph-name="quoteright" unicode="&#x2019;" horiz-adv-x="550" d="M328 607 L328 737 C328 740 325 742 322 742 L228 742 C225 742 222 740 222 737 L222 642 C222 639 225 636 228 636 L293 636 L293 607 C293 571 264 542 228 542 C225 542 222 539 222 536 L222 513 C222 510 225 507 228 507 C283 507 328 552 328 607 L328 607 Z " />
<glyph glyph-name="quotesinglbase" unicode="&#x201a;" horiz-adv-x="550" d="M328 -29 L328 100 C328 103 325 106 322 106 L228 106 C225 106 222 103 222 100 L222 6 C222 3 225 0 228 0 L293 0 L293 -29 C293 -65 264 -94 228 -94 C225 -94 222 -97 222 -100 L222 -124 C222 -127 225 -130 228 -130 C283 -130 328 -85 328 -29 L328 -29 Z " />
<glyph glyph-name="quotedblleft" unicode="&#x201c;" horiz-adv-x="550" d="M434 512 L434 607 C434 610 431 613 428 613 L363 613 L363 642 C363 678 392 707 428 707 C431 707 434 710 434 713 L434 736 C434 740 431 742 428 742 C373 742 328 697 328 642 L328 512 C328 509 331 507 334 507 L428 507 C431 507 434 509 434 512 L434 512 Z M222 512 L222 607 C222 610 219 613 216 613 L151 613 L151 642 C151 678 180 707 216 707 C219 707 222 710 222 713 L222 736 C222 740 219 742 216 742 C161 742 116 697 116 642 L116 512 C116 509 119 507 122 507 L216 507 C219 507 222 509 222 512 L222 512 Z " />
<glyph glyph-name="quotedblright" unicode="&#x201d;" horiz-adv-x="550" d="M434 607 L434 737 C434 740 431 742 428 742 L334 742 C331 742 328 740 328 737 L328 642 C328 639 331 636 334 636 L399 636 L399 607 C399 571 370 542 334 542 C331 542 328 539 328 536 L328 513 C328 510 331 507 334 507 C389 507 434 552 434 607 L434 607 Z M222 607 L222 737 C222 740 219 742 216 742 L122 742 C119 742 116 740 116 737 L116 642 C116 639 119 636 122 636 L187 636 L187 607 C187 571 158 542 122 542 C119 542 116 539 116 536 L116 513 C116 510 119 507 122 507 C177 507 222 552 222 607 L222 607 Z " />
<glyph glyph-name="quotedblbase" unicode="&#x201e;" horiz-adv-x="550" d="M434 -29 L434 100 C434 103 431 106 428 106 L334 106 C331 106 328 103 328 100 L328 6 C328 3 331 0 334 0 L399 0 L399 -29 C399 -65 370 -94 334 -94 C331 -94 328 -97 328 -100 L328 -124 C328 -127 331 -130 334 -130 C389 -130 434 -85 434 -29 L434 -29 Z M222 -29 L222 100 C222 103 219 106 216 106 L122 106 C119 106 116 103 116 100 L116 6 C116 3 119 0 122 0 L187 0 L187 -29 C187 -65 158 -94 122 -94 C119 -94 116 -97 116 -100 L116 -124 C116 -127 119 -130 122 -130 C177 -130 222 -85 222 -29 L222 -29 Z " />
<glyph glyph-name="dagger" unicode="&#x2020;" horiz-adv-x="550" d="M481 477 L481 501 C481 504 478 507 475 507 L293 507 L293 737 C293 740 290 742 287 742 L263 742 C260 742 257 740 257 737 L257 507 L75 507 C72 507 69 504 69 501 L69 477 C69 474 72 471 75 471 L257 471 L257 6 C257 3 260 0 263 0 L287 0 C290 0 293 3 293 6 L293 471 L475 471 C478 471 481 474 481 477 L481 477 Z " />
<glyph glyph-name="daggerdbl" unicode="&#x2021;" horiz-adv-x="550" d="M481 6 L481 29 C481 33 478 35 475 35 L293 35 L293 471 L475 471 C478 471 481 474 481 477 L481 501 C481 504 478 507 475 507 L293 507 L293 737 C293 740 290 742 287 742 L263 742 C260 742 257 740 257 737 L257 507 L75 507 C72 507 69 504 69 501 L69 477 C69 474 72 471 75 471 L257 471 L257 35 L75 35 C72 35 69 33 69 29 L69 6 C69 3 72 0 75 0 L257 0 L257 -230 C257 -233 260 -236 263 -236 L287 -236 C290 -236 293 -233 293 -230 L293 0 L475 0 C478 0 481 3 481 6 L481 6 Z " />
<glyph glyph-name="bullet" unicode="&#x2022;" horiz-adv-x="550" d="M387 371 C387 433 337 483 275 483 C213 483 163 433 163 371 C163 309 213 259 275 259 C337 259 387 309 387 371 L387 371 Z " />
<glyph glyph-name="ellipsis" unicode="&#x2026;" horiz-adv-x="550" d="M528 6 L528 100 C528 103 526 106 522 106 L428 106 C425 106 422 103 422 100 L422 6 C422 3 425 0 428 0 L522 0 C526 0 528 3 528 6 L528 6 Z M328 6 L328 100 C328 103 325 106 322 106 L228 106 C225 106 222 103 222 100 L222 6 C222 3 225 0 228 0 L322 0 C325 0 328 3 328 6 L328 6 Z M128 6 L128 100 C128 103 125 106 122 106 L28 106 C24 106 22 103 22 100 L22 6 C22 3 24 0 28 0 L122 0 C125 0 128 3 128 6 L128 6 Z " />
<glyph glyph-name="perthousand" unicode="&#x2030;" horiz-adv-x="550" d="M222 536 L222 678 C222 720 188 754 145 754 L122 754 C79 754 45 720 45 678 L45 536 C45 494 79 460 122 460 L145 460 C188 460 222 494 222 536 L222 536 Z M187 536 C187 513 168 495 145 495 L122 495 C99 495 81 513 81 536 L81 678 C81 700 99 719 122 719 L145 719 C168 719 187 700 187 678 L187 536 Z M357 500 C360 503 360 506 357 509 L341 525 C338 528 335 528 332 525 L50 243 C48 241 48 237 50 235 L67 218 C69 216 73 216 75 218 L357 500 Z M505 65 L505 206 C505 249 471 283 428 283 L405 283 C381 283 360 272 346 255 C332 272 310 283 287 283 L263 283 C221 283 187 249 187 206 L187 65 C187 23 221 -12 263 -12 L287 -12 C310 -12 332 -1 346 16 C360 -1 381 -12 405 -12 L428 -12 C471 -12 505 23 505 65 L505 65 Z M469 65 C469 42 451 24 428 24 L405 24 C382 24 363 42 363 65 L363 206 C363 229 382 247 405 247 L428 247 C451 247 469 229 469 206 L469 65 Z M328 65 C328 42 310 24 287 24 L263 24 C240 24 222 42 222 65 L222 206 C222 229 240 247 263 247 L287 247 C310 247 328 229 328 206 L328 65 Z " />
<glyph glyph-name="guilsinglleft" unicode="&#x2039;" horiz-adv-x="550" d="M413 403 C416 408 414 412 408 412 L382 412 C381 412 378 411 377 410 L284 270 L283 267 L283 240 L284 237 L377 97 C378 96 381 94 382 94 L408 94 C414 94 416 99 413 103 L319 245 L319 262 L413 403 Z " />
<glyph glyph-name="guilsinglright" unicode="&#x203a;" horiz-adv-x="550" d="M258 240 L258 267 L257 270 L163 410 C163 411 160 412 159 412 L133 412 C127 412 124 408 128 403 L222 262 L222 245 L128 103 C124 99 127 94 133 94 L159 94 C160 94 163 96 163 97 L257 237 L258 240 L258 240 Z " />
<glyph glyph-name="fraction" unicode="&#x2044;" horiz-adv-x="550" d="M442 734 C443 739 441 742 436 742 L411 742 C409 742 406 740 405 739 L108 8 C107 4 109 0 114 0 L139 0 C141 0 144 2 145 4 L442 734 Z " />
<glyph glyph-name="Euro" unicode="&#x20ac;" horiz-adv-x="550" d="M458 147 L458 171 C458 174 455 177 452 177 L428 177 C425 177 422 174 422 171 L422 147 C422 79 367 24 299 24 L263 24 C195 24 139 79 139 147 L139 259 L340 332 C343 333 345 336 343 339 L335 361 C334 364 331 366 328 365 L139 296 L139 402 L328 471 C331 472 333 475 332 478 L324 500 C323 503 319 505 316 504 L139 440 L139 595 C139 664 195 719 263 719 L299 719 C367 719 422 664 422 595 L422 583 C422 580 425 577 428 577 L452 577 C455 577 458 580 458 583 L458 595 C458 683 386 754 299 754 L263 754 C175 754 104 683 104 595 L104 427 L28 399 C25 398 24 394 25 391 L33 369 C34 366 37 365 40 366 L104 389 L104 283 L40 260 C37 259 35 256 36 253 L44 230 C45 227 49 226 52 227 L104 246 L104 147 C104 59 175 -12 263 -12 L299 -12 C386 -12 458 59 458 147 L458 147 Z " />
<glyph glyph-name="trademark" unicode="&#x2122;" horiz-adv-x="550" d="M533 466 L533 748 C533 752 530 754 527 754 L476 754 C474 754 471 752 470 750 L401 497 L332 750 C332 752 328 754 326 754 L275 754 C272 754 269 752 269 748 L269 466 C269 462 272 460 275 460 L299 460 C302 460 304 462 304 466 L304 717 L373 464 C374 462 377 460 379 460 L423 460 C425 460 428 462 429 464 L498 717 L498 466 C498 462 501 460 504 460 L527 460 C530 460 533 462 533 466 L533 466 Z M217 725 L217 748 C217 752 214 754 211 754 L23 754 C20 754 17 752 17 748 L17 725 C17 722 20 719 23 719 L99 719 L99 466 C99 462 102 460 105 460 L129 460 C132 460 135 462 135 466 L135 719 L211 719 C214 719 217 722 217 725 L217 725 Z " />
<glyph glyph-name="Omega" unicode="&#x2126;" horiz-adv-x="550" d="M469 6 L469 29 C469 33 467 35 464 35 L363 35 L363 84 C424 117 458 170 458 230 L458 595 C458 683 386 754 299 754 L251 754 C164 754 92 683 92 595 L92 230 C92 170 126 117 187 84 L187 35 L86 35 C83 35 81 33 81 29 L81 6 C81 3 83 0 86 0 L216 0 C219 0 222 3 222 6 L222 105 C222 107 220 110 218 111 C185 119 128 156 128 230 L128 595 C128 664 183 719 251 719 L299 719 C367 719 422 664 422 595 L422 230 C422 156 365 119 332 111 C330 110 328 107 328 105 L328 6 C328 3 331 0 334 0 L464 0 C467 0 469 3 469 6 L469 6 Z " />
<glyph glyph-name="partialdiff" unicode="&#x2202;" horiz-adv-x="550" d="M446 147 L446 583 C446 671 375 742 287 742 L228 742 C225 742 222 740 222 737 L222 713 C222 710 225 707 228 707 L287 707 C355 707 411 652 411 583 L411 424 C381 460 337 483 287 483 L263 483 C175 483 104 412 104 324 L104 147 C104 59 175 -12 263 -12 L287 -12 C375 -12 446 59 446 147 L446 147 Z M411 147 C411 79 355 24 287 24 L263 24 C195 24 139 79 139 147 L139 324 C139 392 195 448 263 448 L287 448 C355 448 411 392 411 324 L411 147 Z " />
<glyph glyph-name="Delta" unicode="&#x2206;" horiz-adv-x="550" d="M455 59 L455 60 L312 738 C311 740 308 742 306 742 L244 742 C242 742 238 740 238 738 L94 60 L94 59 L94 6 C94 3 97 0 100 0 L449 0 C453 0 455 3 455 6 L455 59 Z M420 35 L130 35 L130 56 L268 707 L282 707 L420 56 L420 35 Z " />
<glyph glyph-name="product" unicode="&#x220f;" horiz-adv-x="550" d="M465 320 L465 737 C465 740 462 742 459 742 L384 742 L380 741 L87 427 C86 427 85 423 85 423 L85 6 C85 3 88 0 91 0 L166 0 C166 0 170 1 170 2 L463 316 C464 316 465 319 465 320 L465 320 Z M429 331 L153 35 L121 35 L121 412 L397 707 L429 707 L429 331 Z " />
<glyph glyph-name="summation" unicode="&#x2211;" horiz-adv-x="550" d="M446 6 L446 136 C446 139 443 141 440 141 L416 141 C413 141 411 139 411 136 L411 35 L139 35 L139 60 L304 354 L304 356 L304 386 L304 389 L139 682 L139 707 L411 707 L411 619 C411 616 413 613 416 613 L440 613 C443 613 446 616 446 619 L446 737 C446 740 443 742 440 742 L110 742 C107 742 104 740 104 737 L104 675 C104 674 105 672 105 672 L269 378 L269 364 L105 71 L104 68 L104 6 C104 3 107 0 110 0 L440 0 C443 0 446 3 446 6 L446 6 Z " />
<glyph glyph-name="minus" unicode="&#x2212;" horiz-adv-x="550" d="M422 253 L422 277 C422 280 420 283 416 283 L134 283 C130 283 128 280 128 277 L128 253 C128 250 130 247 134 247 L416 247 C420 247 422 250 422 253 L422 253 Z " />
<glyph glyph-name="radical" unicode="&#x221a;" horiz-adv-x="550" d="M472 713 L472 737 C472 740 469 742 466 742 L293 742 C291 742 288 740 288 738 L158 41 L118 337 C118 339 115 342 112 342 L89 342 C85 342 82 339 83 335 L127 5 C127 3 130 0 133 0 L181 0 C183 0 186 2 187 5 L318 707 L466 707 C469 707 472 710 472 713 L472 713 Z " />
<glyph glyph-name="infinity" unicode="&#x221e;" horiz-adv-x="550" d="M493 253 L493 277 C493 326 453 365 405 365 C354 365 322 341 275 291 C228 340 194 365 145 365 C97 365 57 326 57 277 L57 253 C57 205 97 165 145 165 C194 165 228 190 275 239 C322 190 356 165 405 165 C453 165 493 205 493 253 L493 253 Z M458 253 C458 224 434 200 405 200 C366 200 336 224 297 265 C336 306 366 330 405 330 C434 330 458 306 458 277 L458 253 Z M252 265 C216 228 186 200 145 200 C116 200 92 224 92 253 L92 277 C92 306 116 330 145 330 C184 330 213 306 252 265 L252 265 Z " />
<glyph glyph-name="integral" unicode="&#x222b;" horiz-adv-x="550" d="M505 560 L505 595 C505 681 447 754 358 754 L334 754 C244 754 187 681 187 595 L187 -136 C187 -171 172 -200 122 -200 L110 -200 C106 -200 104 -203 104 -206 L104 -230 C104 -233 107 -236 110 -236 L122 -236 C184 -236 222 -191 222 -136 L222 595 C222 666 268 719 334 719 L358 719 C424 719 469 666 469 595 L469 560 C469 557 472 554 475 554 L499 554 C502 554 505 557 505 560 L505 560 Z " />
<glyph glyph-name="approxequal" unicode="&#x2248;" horiz-adv-x="550" d="M458 383 L458 395 C458 398 455 401 452 401 L428 401 C425 401 422 398 422 395 L422 383 C422 369 410 344 386 335 C359 324 326 334 288 372 C182 477 92 399 92 336 L92 324 C92 321 95 318 98 318 L122 318 C125 318 128 321 128 324 L128 336 C128 350 140 375 164 384 C191 395 224 385 262 347 C368 242 458 320 458 383 L458 383 Z M458 194 L458 206 C458 209 455 212 452 212 L428 212 C425 212 422 209 422 206 L422 194 C422 180 410 156 386 146 C359 135 326 145 288 183 C182 288 92 211 92 147 L92 136 C92 132 95 130 98 130 L122 130 C125 130 128 132 128 136 L128 147 C128 161 140 186 164 196 C191 207 224 197 262 158 C368 53 458 131 458 194 L458 194 Z " />
<glyph glyph-name="notequal" unicode="&#x2260;" horiz-adv-x="550" d="M422 183 L422 206 C422 209 420 212 416 212 L275 212 L313 318 L416 318 C420 318 422 321 422 324 L422 348 C422 351 420 354 416 354 L326 354 L352 425 C353 428 351 432 349 433 L326 441 C323 442 320 440 319 437 L288 354 L134 354 C130 354 128 351 128 348 L128 324 C128 321 130 318 134 318 L275 318 L237 212 L134 212 C130 212 128 209 128 206 L128 183 C128 180 130 177 134 177 L224 177 L198 105 C197 102 198 99 201 98 L224 89 C227 88 230 90 231 93 L262 177 L416 177 C420 177 422 180 422 183 L422 183 Z " />
<glyph glyph-name="lessequal" unicode="&#x2264;" horiz-adv-x="550" d="M422 280 L422 304 C422 306 420 309 418 309 L158 371 L418 433 C420 434 422 437 422 439 L422 463 C422 467 419 470 415 469 L132 398 C130 397 128 394 128 392 L128 350 C128 348 130 345 132 345 L415 274 C419 273 422 275 422 280 L422 280 Z M422 147 L422 171 C422 174 420 177 416 177 L134 177 C130 177 128 174 128 171 L128 147 C128 144 130 141 134 141 L416 141 C420 141 422 144 422 147 L422 147 Z " />
<glyph glyph-name="greaterequal" unicode="&#x2265;" horiz-adv-x="550" d="M422 350 L422 392 C422 394 420 397 418 398 L135 469 C131 470 128 467 128 463 L128 439 C128 437 130 434 132 433 L392 371 L132 309 C130 309 128 306 128 304 L128 280 C128 275 131 273 135 274 L418 345 C420 345 422 348 422 350 L422 350 Z M422 147 L422 171 C422 174 420 177 416 177 L134 177 C130 177 128 174 128 171 L128 147 C128 144 130 141 134 141 L416 141 C420 141 422 144 422 147 L422 147 Z " />
<glyph glyph-name="lozenge" unicode="&#x25ca;" horiz-adv-x="550" d="M472 357 L472 386 L471 388 L302 739 C301 740 298 742 296 742 L254 742 C252 742 249 740 248 739 L79 388 L78 386 L78 357 L79 354 L248 3 C249 2 252 0 254 0 L296 0 C298 0 301 2 302 3 L471 354 L472 357 Z M436 364 L278 35 L272 35 L114 364 L114 379 L272 707 L278 707 L436 379 L436 364 Z " />
<glyph glyph-name="fi" unicode="&#xfb01;" horiz-adv-x="550" d="M528 6 L528 29 C528 33 526 35 522 35 L446 35 L446 477 C446 480 443 483 440 483 L163 483 L163 595 C163 666 209 719 275 719 L299 719 C365 719 411 666 411 595 C411 592 413 589 416 589 L440 589 C443 589 446 592 446 595 C446 681 388 754 299 754 L275 754 C185 754 128 681 128 595 L128 483 L51 483 C48 483 45 480 45 477 L45 454 C45 451 48 448 51 448 L128 448 L128 35 L51 35 C48 35 45 33 45 29 L45 6 C45 3 48 0 51 0 L240 0 C243 0 246 3 246 6 L246 29 C246 33 243 35 240 35 L163 35 L163 448 L411 448 L411 35 L334 35 C331 35 328 33 328 29 L328 6 C328 3 331 0 334 0 L522 0 C526 0 528 3 528 6 L528 6 Z " />
<glyph glyph-name="fl" unicode="&#xfb02;" horiz-adv-x="550" d="M528 6 L528 29 C528 33 526 35 522 35 L446 35 L446 595 C446 681 388 754 299 754 L275 754 C185 754 128 681 128 595 L128 483 L51 483 C48 483 45 480 45 477 L45 454 C45 451 48 448 51 448 L128 448 L128 35 L28 35 C24 35 22 33 22 29 L22 6 C22 3 24 0 28 0 L522 0 C526 0 528 3 528 6 L528 6 Z M411 35 L163 35 L163 448 L299 448 C302 448 304 451 304 454 L304 477 C304 480 302 483 299 483 L163 483 L163 595 C163 666 209 719 275 719 L299 719 C365 719 411 666 411 595 L411 35 Z " />
</font>
</svg>
